/* XPM */
static char * RightExpandArrow_xpm[] = {
"16 16 40 1",
" 	c None",
".	c #4C4D4E",
"+	c #636465",
"@	c #39393A",
"#	c #353536",
"$	c #7D7D7E",
"%	c #9A9B9D",
"&	c #484849",
"*	c #1D24CE",
"=	c #89898A",
"-	c #AEAEAF",
";	c #B3B3B3",
">	c #0000FF",
",	c #2727F5",
"'	c #A2A2B2",
")	c #BCBCBC",
"!	c #C3C5C7",
"~	c #3030ED",
"{	c #B1B2C0",
"]	c #0A0AF7",
"^	c #0056FF",
"/	c #0972FA",
"(	c #AAAAAA",
"_	c #0583FC",
":	c #03AFFE",
"<	c #5B8ACF",
"[	c #8C8C8C",
"}	c #727374",
"|	c #029EFD",
"1	c #18DDFE",
"2	c #4548C4",
"3	c #5A5B5C",
"4	c #222C74",
"5	c #0036FF",
"6	c #232448",
"7	c #151515",
"8	c #0E0E3B",
"9	c #1111EA",
"0	c #0101D1",
"a	c #1423B3",
"                ",
"   .+@          ",
"   #$%&         ",
"   *=-;.        ",
"   >,')!.       ",
"   >>~{);&      ",
"   >]^/'(%&     ",
"   >^_::<[}     ",
"   ]^|11|23     ",
"   >^_::_4&     ",
"   >5^//67      ",
"   >>],87       ",
"   >>977        ",
"   >077         ",
"   a77          ",
"                "};
