/* XPM */
static const char * const Ez_edit_xpm[] = {
"46 46 129 2",
"  	c None",
". 	c #FFFFFF",
"+ 	c #FEFEFE",
"@ 	c #EDEFF6",
"# 	c #D1D7E9",
"$ 	c #C4CCE3",
"% 	c #C1C5D3",
"& 	c #FCFCFC",
"* 	c #99A4CF",
"= 	c #8DA1CD",
"- 	c #A1ACD3",
"; 	c #A6B0D6",
"> 	c #768CBF",
", 	c #C0C7DB",
"' 	c #4C6EAE",
") 	c #EAECF0",
"! 	c #F5F5F5",
"~ 	c #B6BDD2",
"{ 	c #ECECEC",
"] 	c #8099C9",
"^ 	c #6580BC",
"/ 	c #9CA4BA",
"( 	c #F8F8F8",
"_ 	c #E8E8E8",
": 	c #7680A4",
"< 	c #454545",
"[ 	c #2D2E30",
"} 	c #ADACB3",
"| 	c #F8F8F9",
"1 	c #383839",
"2 	c #1E1F20",
"3 	c #BDBDBC",
"4 	c #ABB1C6",
"5 	c #E3E3E3",
"6 	c #000000",
"7 	c #ADADAC",
"8 	c #B6B6B5",
"9 	c #EFEFEF",
"0 	c #959595",
"a 	c #C4BB8F",
"b 	c #9A8F49",
"c 	c #DEDEDF",
"d 	c #685D0A",
"e 	c #F3D700",
"f 	c #F4D143",
"g 	c #D1B10F",
"h 	c #99880A",
"i 	c #F1EDDE",
"j 	c #D6D6D6",
"k 	c #C6C6C6",
"l 	c #B0B3BD",
"m 	c #413B0C",
"n 	c #F6D75E",
"o 	c #CDCDCD",
"p 	c #747474",
"q 	c #EAC314",
"r 	c #282728",
"s 	c #080808",
"t 	c #1A1A1A",
"u 	c #757987",
"v 	c #B4980C",
"w 	c #E2BD12",
"x 	c #191600",
"y 	c #4C526A",
"z 	c #101213",
"A 	c #FAFAFA",
"B 	c #AFB8D9",
"C 	c #6D7798",
"D 	c #D6D4C9",
"E 	c #545454",
"F 	c #40465A",
"G 	c #87888B",
"H 	c #3D414F",
"I 	c #8F94A4",
"J 	c #14161A",
"K 	c #F2F3F9",
"L 	c #E3E6F2",
"M 	c #B5BDDD",
"N 	c #666668",
"O 	c #D8DAE3",
"P 	c #909DCC",
"Q 	c #F8F9FC",
"R 	c #1A1D24",
"S 	c #858FB9",
"T 	c #F3F3F3",
"U 	c #8A96C3",
"V 	c #CED0D9",
"W 	c #303442",
"X 	c #D9D9D9",
"Y 	c #F4E29C",
"Z 	c #F7E9BB",
"` 	c #FBF7E7",
" .	c #A49C84",
"..	c #F6DC7F",
"+.	c #5A5F74",
"@.	c #D7B946",
"#.	c #F7CF2D",
"$.	c #E9C425",
"%.	c #F6CB17",
"&.	c #F4BE33",
"*.	c #847500",
"=.	c #B3A984",
"-.	c #F2B21E",
";.	c #A89A37",
">.	c #BBA400",
",.	c #A89400",
"'.	c #7F7428",
").	c #766A35",
"!.	c #B29F1B",
"~.	c #8D896A",
"{.	c #F3B60A",
"].	c #EAA603",
"^.	c #DEB814",
"/.	c #AD9A56",
"(.	c #AD8F10",
"_.	c #BD9B12",
":.	c #CFA912",
"<.	c #F4C112",
"[.	c #E0A406",
"}.	c #C2A42E",
"|.	c #EEB20A",
"1.	c #D79B05",
"2.	c #C6A312",
"3.	c #B99A1E",
"4.	c #B8B4A2",
"5.	c #B3A363",
"6.	c #CBAA1E",
"7.	c #D29E08",
"8.	c #B79E3C",
". . . . . . . . . . . . . . . . . . . . . . . . . . . . . . . . . . . . . . . . . . . . . . ",
". . . . . . . . . . . . . . . . . . . . . . . . . . . . . . . . . . . . . . . . . . . . . . ",
". . . . . . . . . . . . . . . . . . . . . . . . . . . . . . . . . . . . . . . . . . . . . . ",
". . . . . . . . . . + @ # $ % $ # @ + . . . . . . . . . . . . . . . . . . . . . . . . . . . ",
". . . . . . . . . & $ * = - ; - = > , + . . . . . . . . . . . . . . . . . . . . . . . . . . ",
". . . . . . . . & , = * ; - - - - > ' ) + . . . . . . . . . . . . . . . . . . . . . . . . . ",
". . . . . . . . ! * * - * * * * * * ' ~ & . . . . . . . . . . . . . . . . . . . . . . . . . ",
". . . . . . . . { ] ; * * * * * * * ^ / ( . . . . . . . . . . . . . . . . . . . . . . . . . ",
". . . . . . . . _ : ^ ^ ^ > > ^ ^ ' > / _ + . . . . . . . . . . . . . . . . . . . . . . . . ",
". . . . . . . . _ < [ * ^ ' ' ' ' / . { } | . . . . . . . . . . . . . . . . . . . . . . . . ",
". . . . . . . . _ 1 2 + < 3 4 5 6 6 7 ( 8 5 + . . . . . . . . . . . . . . . . . . . . . . . ",
". . . . . . . . _ 1 2 9 0 a b 5 6 6 7 9 8 c + . . . . . . . . . . . . . . . . . . . . . . . ",
". . . . . . . . _ 1 d e f g h i j k + ! l 5 + . . . . . . . . . . . . . . . . . . . . . . . ",
". . . . . . . . _ < m g e e e n _ . | o p 0 8 + . . . . . . . . . . . . . . . . . . . . . . ",
". . . . . . . . _ p [ d q e e e h 1 r s t [ 1 u 9 + . . . . . . . . . . . . . . . . . . . . ",
". . . . . . + ! , u 2 s m v w d x 6 6 s y l p z p A . . . . . . . . . . . . . . . . . . . . ",
". . . . . . | B ; C 2 6 p D k 3 E 6 6 F C 1 k < 6 5 + . . . . . . . . . . . . . . . . . . . ",
". . . . . . ! j G H : I + + . . . I : C z 6 t [ 6 8 + . . . . . . . . . . . . . . . . . . . ",
". . . . . + 9 / < r J B B K L M * M N 6 6 6 6 6 6 7 A . . . . . . . . . . . . . . . . . . . ",
". . . . . A l E 1 J p . O P ; @ . . 5 6 6 6 6 6 6 k A . . . . . . . . . . . . . . . . . . . ",
". . . . + O N 1 z 6 k . L P O . . . . p 6 6 6 6 [ 5 & . . . . . . . . . . . . . . . . . . . ",
". . . . ! I < 2 6 E . . $ ; Q . . . . 5 6 6 6 6 p { + . . . . . . . . . . . . . . . . . . . ",
". . . + O N [ s 6 7 . . ; * . . . . . . p 6 6 R S 9 . . . . . . . . . . . . . . . . . . . . ",
". . . ( , < t 6 t T . L $ B Q . . . . . 5 6 6 H S O + . . . . . . . . . . . . . . . . . . . ",
". . . 9 / 1 z 6 N . + L # $ L . . . . . . [ 6 6 U 4 | . . . . . . . . . . . . . . . . . . . ",
". . + O * r s 6 0 + . # L $ # . . . . . . p 6 6 C U T . . . . . . . . . . . . . . . . . . . ",
". . A V ; [ 6 6 7 . . L L L L . . . . . + 0 6 6 y S c + . . . . . . . . . . . . . . . . . . ",
". . | V - H 6 6 p . . . L L A . . . . . . 0 6 6 F S % & . . . . . . . . . . . . . . . . . . ",
". . | V - H 6 6 6 k . . + . . . . . . . + 0 6 6 W U 4 ( . . . . . . . . . . . . . . . . . . ",
". . | V ; H 6 6 6 N . . . . . . . . . . . G 6 6 W U / T . . . . . . . . . . . . . . . . . . ",
". . | V ; H 6 6 6 6 . . . . . . . . . . & E 6 6 W U S 9 . . . . . . . . . . . . . . . . . . ",
". . ( , ; y 6 6 [ 0 . . . . . . . . . . . t 6 6 W U S _ . . . . . . . . . . . . . . . . . . ",
". . ! % - C 6 6 6 X . . . . . . . . . . 3 6 6 6 y U S j + . . . . . . . . . . . . . . . . . ",
". . T ~ - S 6 6 6 p . . . . . . . . . . p 6 6 6 : P S a Y Y Z Z i ` + . . . . . . . . . . . ",
". . ! % - * R 6 6 6 5 . . . . . . . . j 6 6 6 z P P U  .f f n n n n n ..Y Z ` + . . . . . . ",
". . ( V ; * +.6 6 6 E . . . . . . . j t 6 6 6 y P P P P @.#.#.#.#.f f f n n n ..Z + . . . . ",
". . ( , ; * U z 6 6 6 p + + & & + j t 6 6 6 6 S P P P P / $.%.%.%.%.%.%.%.#.&.&.f n Z + . . ",
"+ | O ; P U I b *.m 6 6 E k _ k p 6 6 6 6 x H S S S U U U / 7 =.%.%.%.%.%.%.%.%.-.&.#.Y + . ",
"A B U > G ;.>.>.>.>.h ,.>.v '.).,.>.h *.d ,.>.!.;.~.C C : : :  .q %.%.%.%.%.%.%.{.].$.^.! . ",
"( c 3 /.(.(.(.(.(.(.(.(.(.(.v v v (.(.(.(.(.(.(.(.(.(.(.(.(._.:.q %.%.%.%.%.<.{.].[.g }.{ . ",
"A 9 c 3 }.:.:.g ^.^.^.^.^.^.w w ^.^.^.^.^.^.^.^.^.^.^.^.^.^.^.q <.<.{.{.|.].].[.1.2.3.4.9 . ",
". . A _ 3 5.6.g ^.w q q %.%.%.%.%.%.%.%.%.%.%.%.%.%.<.<.{.{.|.].].].].].[.[.7.2._./.4.c | . ",
". . + | _ D 8 =.8.2.:.g ^.^.w q q q q q w {.|.].].].].].[.].].].[.[.:.2.2._.;.5.4.k 5 ! + . ",
". . . + & T 5 j k 8 =.5.8.}.2.2.2.:.:.:.:.:.:.:.g :.:.:.:.:.2._._.3.8./.=.4.3 o c 9 A + . . ",
". . . . . + & ! { 5 X o k 8 8 4.=.=.5.5.5.5.5.5.5.5.5.5.5.=.=.=.8 8 3 o j c { T A + . . . . ",
". . . . . . . . + + | T 9 _ 5 c X j o o o o o o o o o o o j j c 5 _ 9 T ( & + . . . . . . . "};
