/* XPM */
static char * DownExpandArrow_xpm[] = {
"16 16 35 1",
" 	c None",
".	c #151515",
"+	c #FF0200",
"@	c #FF4900",
"#	c #800000",
"$	c #353536",
"%	c #4C4D4E",
"&	c #39393A",
"*	c #FE5F00",
"=	c #FE8008",
"-	c #FF9C00",
";	c #FF6D00",
">	c #89898A",
",	c #7D7D7E",
"'	c #636465",
")	c #FFBE0D",
"!	c #FFB600",
"~	c #B47F7D",
"{	c #AAAAB5",
"]	c #AAAAAA",
"^	c #9A9B9D",
"/	c #FFDA00",
"(	c #C0C0C0",
"_	c #BABABA",
":	c #B3B3B3",
"<	c #484849",
"[	c #414142",
"}	c #B0B0B0",
"|	c #BCBCBC",
"1	c #C5C4C5",
"2	c #888888",
"3	c #5F6061",
"4	c #8C8C8C",
"5	c #A3A3A3",
"6	c #727374",
"                ",
"                ",
"                ",
"                ",
" .+++@@@@@++#$% ",
" .&+@*=-;*@+>,' ",
" ..&@;)!)=~{]^& ",
"  ..&-)/)~(_:<  ",
"   ..[)!~}|1%   ",
"    ..#~2]:%    ",
"     .[345<     ",
"      <36<      ",
"                ",
"                ",
"                ",
"                "};
