/* XPM */
static char * IsExtraPk_xpm[] = {
"16 16 19 1",
" 	c None",
".	c #000000",
"+	c #A4E8FC",
"@	c #24D0FC",
"#	c #001CD0",
"$	c #0080E8",
"%	c #C0FFFF",
"&	c #00FFFF",
"*	c #008080",
"=	c #00C0C0",
"-	c #585858",
";	c #FFFF85",
">	c #FFFF00",
",	c #FFFFDE",
"'	c #C0C000",
")	c #DEDEB6",
"!	c #C1C10A",
"~	c #FFFFC0",
"{	c #FFFFFF",
"     ..         ",
"    .++..       ",
"   .+++@@.      ",
"  .@@@@@#...    ",
"  .$$@@##.%%..  ",
"  .$$$##.%%%&&. ",
"  .$$$#.&&&&&*. ",
"   ...#.==-;**. ",
"   .++.-;=->,-; ",
"  .+++@@->'>'>) ",
" .@@@@@#.!~;~'-.",
" .$$@@#;>>;{;>>;",
" .$$$##..'~;~'..",
" .$$$##..>'>'>  ",
"  ..$#..; .> .; ",
"    ..    .;    "};
