/* XPM */
static char *ccam_view_icn[]={
"48 48 401 2",
"Qt c None",
".b c #000000",
"el c #000009",
".v c #000101",
"a9 c #000606",
".a c #010101",
".c c #020202",
".h c #020505",
"d9 c #021115",
".1 c #030303",
".J c #040404",
"aA c #050505",
"d8 c #051218",
".g c #070707",
"cT c #070d0e",
".2 c #071111",
"eo c #080808",
".u c #090909",
"#M c #0a0a0a",
"b. c #0a1012",
"#N c #0b0b0b",
".i c #0b1010",
"ea c #0c1414",
"b8 c #0d0d0d",
"bV c #0f0f0f",
"b9 c #101010",
".w c #101f1f",
"cr c #111111",
"e. c #111e22",
"bm c #131313",
".d c #141414",
"ct c #142323",
".j c #152626",
"#Q c #152e33",
"be c #153536",
"#l c #161616",
"cV c #161f21",
"eb c #162d34",
"en c #171717",
"ec c #17292a",
".f c #181818",
"#o c #183133",
"ck c #18383e",
"dZ c #183943",
"aZ c #191919",
"bd c #19383f",
"em c #1a1a1a",
"bt c #1a2d32",
"dK c #1a323a",
"cU c #1b2123",
"az c #1c1c1c",
"bW c #1c2223",
".K c #1c2c2e",
"bN c #1d1d1d",
"d# c #1d2a2a",
"dT c #1e1e1e",
"dw c #1e1f1f",
"cz c #1e272a",
".P c #1e3739",
".I c #1f1f1f",
"bx c #1f2223",
"d3 c #1f373a",
".A c #1f3838",
".L c #1f3a3e",
"dc c #1f3f49",
"db c #1f4149",
"dG c #1f424d",
".e c #202020",
"aS c #203939",
".M c #203d3d",
"dD c #20414d",
".E c #212121",
"aL c #21292c",
"#t c #213034",
".V c #222b2b",
".T c #223c41",
"dJ c #223d43",
".0 c #232323",
".U c #233838",
".z c #233b3b",
"dp c #233f3f",
"ca c #234040",
".9 c #234955",
"cS c #242d30",
"#D c #252e2e",
"c1 c #254545",
"aR c #254549",
"dl c #254e55",
"dW c #26434c",
".k c #273c3c",
"a4 c #27535c",
"cL c #282e2e",
"cf c #283b3d",
"dL c #283d3e",
"di c #284d59",
"ed c #293333",
"#P c #293838",
"dA c #294448",
"da c #294546",
"#v c #29494b",
"#m c #2a2b2b",
"ap c #2a2f2f",
"d2 c #2a3f46",
".Q c #2a4345",
".N c #2a464d",
"bc c #2a4b55",
"#k c #2b2b2b",
"dN c #2b3434",
"dU c #2b3a3a",
"aQ c #2b4b4d",
"cQ c #2b4b53",
"#c c #2b4c57",
"#b c #2b535b",
"dy c #2c3535",
".x c #2c474f",
"dg c #2c4a4e",
"dz c #2c4a50",
"a2 c #2d3838",
"aP c #2d5151",
"b# c #2d525c",
"ek c #2e2e2e",
"cG c #2e3f44",
".t c #2f2f2f",
"cj c #2f4e56",
"#L c #303030",
".6 c #304748",
".y c #304749",
"a. c #313131",
".m c #313434",
"dq c #314141",
"dM c #314545",
"cl c #314849",
"d0 c #314a4c",
".7 c #315056",
"aa c #323333",
"d4 c #323c3d",
"#V c #32444a",
"bf c #324646",
"d7 c #333333",
"aC c #333939",
"#u c #334144",
".3 c #334e4e",
"cP c #334f53",
"cR c #34474d",
"c2 c #345353",
"a3 c #345e60",
"#O c #363636",
"dx c #363f3f",
"bY c #366168",
"cX c #366472",
"df c #375660",
"aO c #375d5d",
"bs c #38646f",
"#y c #386776",
"ef c #393f3f",
"dd c #39545a",
"ao c #39595a",
"#a c #39616b",
"#e c #3a4343",
".O c #3a4e54",
"#C c #3a5252",
"ai c #3a5358",
"ee c #3b4041",
"dC c #3b5556",
"#d c #3b595a",
"cu c #3b6366",
".S c #3c5057",
"cF c #3c5760",
"#Z c #3c5f61",
"#0 c #3d5b5b",
"bb c #3d636f",
"br c #3d6772",
"#W c #3d6a76",
"bw c #3e3e3e",
".B c #3e5050",
"dE c #3e595e",
"ac c #3e6164",
"cv c #3e636a",
"cb c #3e6770",
"b2 c #3f4949",
".C c #3f5054",
"b0 c #3f5f5f",
"c3 c #405353",
"dY c #405c60",
"c0 c #405f65",
"bX c #40656f",
"cB c #40696c",
"ba c #406b76",
"#2 c #415757",
".8 c #415c5e",
"bZ c #416566",
".l c #424a4a",
"cy c #425054",
"dV c #42555d",
"cW c #42565b",
"dX c #425a62",
"dh c #425c62",
"#B c #425d5d",
"cC c #426365",
"a5 c #426b75",
"ay c #434343",
"e# c #434c51",
"dB c #435b62",
"dH c #435d60",
"an c #435e5f",
"dF c #435e63",
"#z c #436971",
"bE c #444f4f",
"aD c #445d5d",
".D c #454d4f",
"#n c #455455",
"dI c #455d63",
"de c #465f62",
"cc c #466e71",
"bU c #47585c",
"cN c #476060",
"#x c #47717f",
"d1 c #485d61",
"dm c #48676c",
"aK c #494949",
"d5 c #494e4e",
"cd c #4a7175",
".n c #4b4d4d",
".R c #4b5e61",
"cM c #4b6262",
"cO c #4b6469",
"ab c #4b6868",
"ci c #4b6972",
"aN c #4b7373",
"am c #4c6668",
".s c #4d4d4d",
"a6 c #4d6368",
"dk c #4d717d",
"ak c #4d7378",
"#1 c #4e6566",
"aj c #4e7a86",
"#R c #4f6265",
"cD c #506c71",
"aM c #507374",
".H c #515151",
"by c #516b6e",
"ce c #516d73",
"b1 c #516e6e",
"cY c #537780",
"cE c #546b72",
"bq c #547f81",
"#s c #556065",
"cw c #55747d",
".W c #565656",
"do c #56696c",
"al c #567375",
"dj c #56757c",
"aG c #567b7f",
"#. c #577987",
"cA c #587b87",
"ah c #595959",
"eg c #595a5a",
"dn c #597376",
"bT c #597c84",
"#3 c #5a5a5a",
"d. c #5a6060",
"aE c #5a7b7b",
"#A c #5b777f",
"#Y c #5b808a",
".5 c #5c696c",
"bS c #5c7e84",
"eh c #5d5f5f",
"bD c #5d7878",
"## c #5f808d",
"cZ c #607e88",
"#X c #60868b",
"bO c #626262",
".F c #636363",
"#U c #646464",
"bA c #648182",
"#w c #648897",
"c9 c #656565",
"cx c #658590",
"bR c #658788",
"aF c #65888a",
"d6 c #666666",
"bp c #666c6c",
"c4 c #667272",
".Z c #676767",
"cg c #68868e",
"bz c #68898b",
".r c #696969",
"dS c #6b6b6b",
"ad c #6b868f",
"ch c #6b888f",
"cq c #6c6c6c",
"a# c #6d6d6d",
".4 c #6d7778",
"ej c #6e6e6e",
"ei c #6f6f6f",
"bC c #6f8686",
"cJ c #707070",
"bB c #708888",
".o c #717171",
"bQ c #727a7a",
".G c #737373",
".q c #747474",
"dO c #747676",
".Y c #757575",
".p c #767676",
"b7 c #787878",
"cm c #787f7f",
"#p c #797e7e",
"#j c #7a7a7a",
"cs c #7a7e7e",
"aY c #7c7c7c",
"dR c #7d7d7d",
"bM c #7e7e7e",
"dv c #808080",
"c# c #808686",
".X c #818181",
"bu c #818383",
"c8 c #828282",
"#i c #848484",
"cK c #858585",
"dQ c #868686",
"dP c #878787",
"dr c #898e8e",
"a0 c #8a8a8a",
"c7 c #8c8c8c",
"aB c #8c8d8d",
"#J c #8e8e8e",
"#K c #8f8f8f",
"cp c #909090",
"bP c #929292",
"#f c #959595",
"#q c #969696",
"du c #979797",
"b6 c #989898",
"bl c #9a9a9a",
"#9 c #9c9c9c",
"#h c #9d9d9d",
"aT c #a0a4a4",
"#r c #a2a4a4",
"bL c #a5a5a5",
"dt c #a6a6a6",
"#I c #a8a8a8",
"ax c #a9a9a9",
"ds c #ababab",
"bk c #afafaf",
"co c #b1b1b1",
"bK c #b2b2b2",
"bo c #b3b3b3",
"c. c #b6b6b6",
"#S c #b9b9b9",
"bv c #bababa",
"#g c #bcbcbc",
"#8 c #bdbdbd",
"bJ c #bebebe",
"aH c #bebebf",
".# c #c00000",
"c6 c #c0c0c0",
"cI c #c1c1c1",
"cH c #c1c2c2",
"a1 c #c2c2c2",
"bg c #c4c4c4",
"b5 c #c5c5c5",
"aX c #c6c6c6",
"#E c #c7c7c7",
"bI c #c9c9c9",
"b4 c #cacaca",
"aw c #cbcbcb",
"bj c #cccccc",
"#H c #cdcdcd",
"c5 c #cecece",
"cn c #cfcfcf",
"bH c #d0d0d0",
"#7 c #d1d1d1",
"bi c #d2d2d2",
"b3 c #d3d3d3",
"av c #d4d4d4",
"bG c #d5d5d5",
"#T c #d6d6d6",
"bn c #d7d7d7",
"au c #d8d8d8",
"#6 c #d9d9d9",
"aW c #dadada",
"at c #dbdbdb",
"#G c #dcdcdc",
"bh c #dddddd",
"bF c #dedede",
"#F c #dfdfdf",
"aV c #e0e0e0",
"#5 c #e1e1e1",
"as c #e2e2e2",
"aU c #e3e3e3",
"ar c #e4e4e4",
"#4 c #e5e5e5",
"ag c #e6e6e6",
"aq c #e7e7e7",
"a8 c #ebebeb",
"aJ c #efefef",
"a7 c #f2f2f2",
"ae c #f6f6f6",
"aI c #fafafa",
"af c #fdfdfd",
"QtQtQtQtQtQtQtQtQtQtQtQtQtQtQtQtQtQtQtQtQtQtQtQtQtQtQtQtQtQtQtQtQtQtQtQtQtQtQtQtQtQtQtQtQtQtQtQt",
"QtQtQtQt.#.#.#.#.#QtQtQtQtQt.#.#.#.#.#QtQtQt.#.#.#.#QtQtQtQt.#.#.#.#.#.#.#.#.#QtQtQtQtQtQtQtQtQt",
"QtQtQt.#.#.#.#.#.#QtQtQtQt.#.#.#.#.#.#QtQtQt.#.#.#.#.#QtQtQt.#.#.#.#.#.#.#.#.#.#QtQtQtQtQtQtQtQt",
"QtQtQt.#.#QtQtQtQtQtQtQtQt.#.#QtQtQtQtQtQtQtQtQtQt.#.#QtQtQt.#.#QtQt.#.#QtQt.#.#QtQtQtQtQtQtQtQt",
"QtQtQt.#.#QtQtQtQtQtQtQtQt.#.#QtQtQtQtQtQtQt.#.#.#.#.#QtQtQt.#.#QtQt.#.#QtQt.#.#QtQtQtQtQtQtQtQt",
"QtQtQt.#.#QtQtQtQtQtQtQtQt.#.#QtQtQtQtQtQtQt.#.#.#.#.#QtQtQt.#.#QtQt.#.#QtQt.#.#QtQtQtQtQtQtQtQt",
"QtQtQt.#.#QtQtQtQtQtQtQtQt.#.#.#.#.#.#QtQtQt.#.#Qt.#.#QtQtQt.#.#QtQt.#.#QtQt.#.#QtQtQtQtQtQtQtQt",
"QtQtQt.#.#QtQtQtQtQtQtQtQtQt.#.#.#.#.#QtQtQt.#.#.#.#.#.#QtQt.#.#QtQt.#.#QtQt.#.#QtQtQtQtQtQtQtQt",
"QtQtQt.#.#QtQtQtQtQtQtQtQtQtQtQtQtQtQtQtQtQtQtQtQtQtQtQtQtQtQtQtQtQtQtQtQtQtQtQtQtQtQtQtQtQtQtQt",
"QtQtQt.#.#QtQtQtQtQtQtQtQtQtQtQtQtQtQtQtQtQtQtQtQtQtQtQtQtQtQtQtQtQtQtQtQtQtQtQtQtQtQtQtQtQtQtQt",
"QtQtQt.#.#QtQtQtQtQtQtQtQtQtQtQtQtQtQtQtQtQtQtQtQtQtQtQtQtQtQtQtQtQtQtQtQtQtQtQtQtQtQtQtQtQtQtQt",
"QtQtQt.#.#QtQtQtQtQtQtQtQtQtQtQtQtQtQtQtQtQtQtQtQtQtQtQtQtQtQtQtQtQtQtQtQtQtQtQtQtQtQtQtQtQtQtQt",
"QtQtQt.#.#QtQtQtQtQtQtQtQtQtQtQtQtQtQtQtQtQtQtQtQtQtQtQtQtQtQtQtQtQtQtQtQtQtQtQtQtQtQtQtQtQtQtQt",
"QtQtQt.#.#QtQtQtQtQtQtQtQtQtQtQtQtQtQtQtQtQtQtQtQtQtQtQtQtQtQtQtQtQtQtQtQtQtQtQtQtQtQtQtQtQtQtQt",
"QtQtQt.#.#.#.#.#.#QtQtQtQtQtQtQtQtQtQtQtQtQtQtQtQtQtQtQtQtQtQtQtQtQtQtQtQtQtQtQtQtQtQtQtQtQtQtQt",
"QtQtQtQt.#.#.#.#.#QtQtQtQtQtQtQtQtQtQtQt.a.b.c.d.e.f.g.a.a.a.aQtQtQtQtQtQtQtQtQtQtQtQtQtQtQtQtQt",
"QtQtQtQtQtQtQtQtQtQtQtQtQtQtQtQtQt.h.b.i.j.k.l.m.n.o.p.q.r.s.t.u.cQtQtQtQtQtQtQtQtQtQtQtQtQtQtQt",
"QtQtQtQtQtQtQtQtQtQtQtQtQtQtQt.b.v.w.x.y.z.A.B.C.D.E.F.p.q.q.G.G.H.I.JQtQtQtQtQtQtQtQtQtQtQtQtQt",
"QtQtQtQtQtQtQtQtQtQtQtQtQt.b.b.K.L.M.N.O.P.Q.R.S.T.U.V.W.X.p.Y.q.q.Z.0.IQtQtQtQtQtQtQtQtQtQtQtQt",
"QtQtQtQtQtQtQtQtQtQtQt.b.1.2.3.4.5.6.7.8.9#.###a#b#c#d#e#f#g#h#i#j.p.q#k#lQtQtQtQtQtQtQtQtQtQtQt",
"QtQtQtQtQtQtQtQtQtQt.b#m#n#o#p#q#r#s#t#u#v#w#x#y#z#A#B#C#D#E#F#G#H#I#J#K#L#MQtQtQtQtQtQtQtQtQtQt",
"QtQtQtQtQtQtQtQtQt#N#O#P#Q#R#S#T#F#U.b.b.b#V#W#X#Y#Z#0#1#2#3#4#5#F#6#7#8#9a.#lQtQtQtQtQtQtQtQtQt",
"QtQtQtQtQtQtQtQt#Na#aaabacadaeafagah.b.b.b.baiajakalamanaoapaqarasatauavawaxayazQtQtQtQtQtQtQtQt",
"QtQtQtQtQtQtQtaAaBaCaDaEaFaGaHaIaJaK.b.b.b.baLaMaNaOaPaQaRaSaTaUaV#FaWavawaX#gaYaZQtQtQtQtQtQtQt",
"QtQtQtQtQtQt.ba0a1a2a3a4a5a6.Ha7a8.Wa9.b.b.bb.b#babbbcbdbebfbgaU#FbhaWbibjbg#gbkblbmQtQtQtQtQtQt",
"QtQtQtQtQt.b.Ybnbobpbqbrbsbt.abubvbw.b.b.b.bbxbybzbAbBbCbDbEaU#FbFaWbGbHbIbJbKbLbMbNQtQtQtQtQtQt",
"QtQtQtQtQt.abObGbPbQbRbSbTbU.bbV#k.1.b.b.b.bbWbXbYbZb0b1bBb2aVataWbnb3b4b5#Sb6b7#Ub8QtQtQtQtQtQt",
"QtQtQtQtQt.bb9c.c#cacbcccdce.b.b.b.b.b.b.b.bcfcgchcicjckclcm#G#6#TavcnaXcocpb7cqcrQtQtQtQtQtQtQt",
"QtQtQtQtQtQt#l.Fcsctcucvcwcxcy.b.b.b.b.b.bczcAcBcCcDcEcFcGcHbGav#7bjcIbL#i#jcJb8.1QtQtQtQtQtQtQt",
"QtQtQtQtQtQtaA#jcKcLcMcNcOcPcQcRcScTcUcVcWcXcYcZc0c1c2c3c4cnc5awc6#Ic7c8#j.ZaAQtQtQtQtQtQtQtQtQt",
"QtQtQtQtQtQtQt#Nc9d.d#dadbdcdddedfdgdhdidjdkdldmdndodpdqdrdsdtdua0cKdv.paK.bQtQtQtQtQtQtQtQtQtQt",
"QtQtQtQtQtQtQtQtQtdwdxdydzdAdBdCdDdEdFdGdHdIdJdKdLdMdNdOdvdPdQ#idRb7dSdT.bQtQtQtQtQtQtQtQtQtQtQt",
"QtQtQtQtQtQtQtQtQtQt.a.ca9dUdVdWdGdXdYdZd0d1d2d3d4d5dRdRbMaYb7.pd6d7b8.bQtQtQtQtQtQtQtQtQtQtQtQt",
"QtQtQtQtQtQtQtQtQtQtQtQtQta9d8d9e.e#eaebecedeeefegehei.o.o.Yejek.b.bQtQtQtQtQtQtQtQtQtQtQtQtQtQt",
"QtQtQtQtQtQtQtQtQtQtQtQtQtQtQtQt.bel.v.bemefememefenef#MaAeo.J.bQtQtQtQtQtQtQtQtQtQtQtQtQtQtQtQt",
"QtQt.#.#QtQtQtQtQtQtQtQtQtQtQtQtQtQtQtQt.b.bembVbV.g.b.bQtQtQtQtQtQtQtQtQtQtQtQtQtQtQtQtQtQtQtQt",
"QtQt.#.#QtQtQtQtQtQt.#.#QtQt.#.#QtQtQtQtQtQtQtQtQtQtQtQtQtQtQtQtQtQtQtQtQtQtQtQtQtQtQtQtQtQtQtQt",
"QtQt.#.#QtQtQtQtQtQt.#.#QtQt.#.#QtQtQtQtQtQtQtQtQtQtQtQtQtQtQtQtQtQtQtQtQtQtQtQtQtQtQtQtQtQtQtQt",
"QtQtQt.#.#QtQtQtQt.#.#QtQtQtQtQtQtQtQtQtQtQtQtQtQtQtQtQtQtQtQtQtQtQtQtQtQtQtQtQtQtQtQtQtQtQtQtQt",
"QtQtQt.#.#QtQtQtQt.#.#QtQtQt.#.#QtQtQtQt.#.#.#QtQtQtQt.#.#QtQtQtQtQtQt.#.#QtQtQtQtQtQtQtQtQtQtQt",
"QtQtQtQt.#.#QtQt.#.#QtQtQtQt.#.#QtQtQt.#.#.#.#.#QtQtQt.#.#QtQtQtQtQtQt.#.#QtQtQtQtQtQtQtQtQtQtQt",
"QtQtQtQt.#.#QtQt.#.#QtQtQtQt.#.#QtQtQt.#.#.b.#.#QtQtQt.#.#QtQt.#.#QtQt.#.#QtQtQtQtQtQtQtQtQtQtQt",
"QtQtQtQt.#.#QtQt.#.#QtQtQtQt.#.#QtQtQt.#.#Qt.#.#QtQtQtQt.#QtQt.#.#Qt.#.#QtQtQtQtQtQtQtQtQtQtQtQt",
"QtQtQtQtQt.#.#.#.#QtQtQtQtQt.#.#QtQtQt.#.#.#.#QtQtQtQtQt.#.#.#Qt.#Qt.#.#QtQtQtQtQtQtQtQtQtQtQtQt",
"QtQtQtQtQt.#.#.#.#QtQtQtQtQt.#.#QtQtQt.#.#QtQtQtQtQtQtQtQt.#.#Qt.#.#.#QtQtQtQtQtQtQtQtQtQtQtQtQt",
"QtQtQtQtQtQt.#.#QtQtQtQtQtQt.#.#QtQtQtQt.#.#.#.#QtQtQtQtQt.#.#QtQt.#.#QtQtQtQtQtQtQtQtQtQtQtQtQt",
"QtQtQtQtQtQtQtQtQtQtQtQtQtQtQtQtQtQtQtQtQtQtQtQtQtQtQtQtQtQtQtQtQtQtQtQtQtQtQtQtQtQtQtQtQtQtQtQt",
"QtQtQtQtQtQtQtQtQtQtQtQtQtQtQtQtQtQtQtQtQtQtQtQtQtQtQtQtQtQtQtQtQtQtQtQtQtQtQtQtQtQtQtQtQtQtQtQt"};
