/* XPM */
static char *delete_Icon16[]={
"16 16 100 2",
"Qt c None",
".# c #000000",
"#E c #420000",
"#z c #430000",
"#s c #440000",
".S c #4f0000",
".P c #500000",
".G c #520000",
"#k c #790000",
"#D c #7e0000",
"#y c #800000",
"#r c #830000",
".X c #850000",
"#H c #860000",
"#j c #890000",
".O c #990000",
".F c #9d0000",
".p c #a00000",
"#l c #a30000",
"#C c #ab0000",
"#G c #ac0000",
".1 c #ae0000",
"#B c #b00000",
"#x c #b10000",
"#F c #b20000",
"#q c #b40000",
"#t c #b50000",
"#i c #b90000",
"#a c #ba0000",
".h c #bd0000",
"#n c #be0000",
"#w c #c00000",
"#e c #c10000",
".7 c #c20000",
"#A c #c30000",
"#u c #c40000",
"#m c #c60000",
"#v c #c70000",
".W c #c80000",
"#b c #c90000",
".g c #cc2d2d",
"#d c #cd0000",
".6 c #ce0000",
"#p c #ce2b2b",
"#c c #d10000",
"## c #d20000",
".N c #d30000",
"#h c #d42b2b",
".R c #d50000",
".5 c #d60000",
".E c #d70000",
"#. c #d72b2b",
".H c #d80000",
".4 c #da2222",
".w c #db0000",
"#o c #db6a6a",
".0 c #dc0000",
".x c #dd0000",
"#g c #df6a6a",
".Z c #e02d2d",
".V c #e10000",
".9 c #e16a6a",
".U c #e31313",
".m c #e40000",
".3 c #e46868",
".I c #e50000",
".T c #e53434",
".Q c #e60000",
".d c #e70000",
".J c #e90000",
".Y c #e97272",
"#f c #e99a9a",
".y c #ea0000",
".8 c #ea9a9a",
".K c #eb1313",
".M c #ec2222",
".L c #ed2d2d",
".2 c #ed9a9a",
".s c #ee0000",
".z c #ef0000",
".l c #f10000",
".D c #f12b2b",
".q c #f20000",
".A c #f23434",
".r c #f30000",
".C c #f46868",
".v c #f52b2b",
".B c #f57272",
".k c #f60000",
".j c #f70000",
".c c #f80000",
".i c #f82b2b",
".u c #f86a6a",
".o c #f96a6a",
".t c #fa9a9a",
".b c #fb2a2a",
".n c #fb9a9a",
".a c #fc6363",
".f c #fc6a6a",
".e c #fd9a9a",
"Qt.#.#.#.#QtQtQtQtQtQt.#.#.#.#Qt",
".#.a.b.c.d.#QtQtQtQt.#.e.f.g.h.#",
".#.i.j.k.l.m.#QtQt.#.n.o.i.h.p.#",
".#.q.r.r.r.s.m.#.#.t.u.v.r.w.p.#",
".#.x.y.s.z.s.s.A.B.C.D.z.E.F.G.#",
"Qt.#.H.I.J.y.y.K.L.M.y.N.O.P.#Qt",
"QtQt.#.H.m.Q.Q.Q.Q.Q.R.O.S.#QtQt",
"QtQtQt.#.T.U.V.V.V.V.W.X.#QtQtQt",
"QtQtQt.#.Y.Z.0.0.0.0.N.1.#QtQtQt",
"QtQt.#.2.3.4.E.E.E.E.5.6.7.#QtQt",
"Qt.#.8.9#.##.7#a#b#c###c#d#e.#Qt",
".##f#g#h.6#i#j#k#l#m#d.6#d#b#n.#",
".##o#p.W#q#r#s.#.##t#u#v.W#v#w.#",
".#.g#u#x#y#z.#QtQt.##t#w#A#u#B.#",
".#.h#C#D#E.#QtQtQtQt.##F#i#G#H.#",
"Qt.#.#.#.#QtQtQtQtQtQt.#.#.#.#Qt"};
