/* XPM */
static char * Down_xpm[] = {
"22 22 66 1",
" 	c None",
".	c #000000",
"+	c #F57600",
"@	c #F79644",
"#	c #F39644",
"$	c #F19644",
"%	c #EE9644",
"&	c #EB9644",
"*	c #E99644",
"=	c #E59644",
"-	c #E5A058",
";	c #C66000",
">	c #F57800",
",	c #F17800",
"'	c #EE7800",
")	c #EA7800",
"!	c #E67800",
"~	c #E37800",
"{	c #DF7800",
"]	c #E39644",
"^	c #E77000",
"/	c #E39647",
"(	c #773900",
"_	c #F97600",
":	c #F77600",
"<	c #F87800",
"[	c #E08D34",
"}	c #E19646",
"|	c #DF9645",
"1	c #A16B2D",
"2	c #5E2C00",
"3	c #C76000",
"4	c #DB7800",
"5	c #CD7200",
"6	c #975500",
"7	c #211200",
"8	c #5C2C00",
"9	c #C56000",
"0	c #E47000",
"a	c #DB7902",
"b	c #8B4E00",
"c	c #0F0800",
"d	c #5B2C00",
"e	c #C26000",
"f	c #DF7000",
"g	c #D97400",
"h	c #A75B00",
"i	c #160C00",
"j	c #5A2C00",
"k	c #BF6000",
"l	c #DD7000",
"m	c #E37902",
"n	c #8E4D00",
"o	c #190D00",
"p	c #582C00",
"q	c #BD6000",
"r	c #DA7100",
"s	c #E47700",
"t	c #AD5C00",
"u	c #060200",
"v	c #5E2F00",
"w	c #B85F00",
"x	c #995000",
"y	c #221200",
"z	c #120A00",
"A	c #130A00",
"                      ",
"                      ",
"                      ",
"     .........        ",
"    .+@#$%&*=-.       ",
"    .;>,')!~{].       ",
"    .;>,')!~{].       ",
"    .;>,')!~{].       ",
"    .;>,')!~{].       ",
"    .;>,')!~{].       ",
"   ..^>,')!~{/..      ",
"  (_:<>,')!~{[}|1     ",
"   23^>,')!~{4567     ",
"    890,')!~{abc      ",
"     def')!~ghi       ",
"      jkl)!mno        ",
"       pqrstu         ",
"        vwxy          ",
"         zA           ",
"                      ",
"                      ",
"                      "};
