/* XPM */
static const char *LivreFerme_xpm[] = {
/* width height num_colors chars_per_pixel */
"    16    16      256            2",
/* colors */
"`` c #ffffff",
"`. c #330000",
"`# c #660000",
"`a c #990000",
"`b c #cc0000",
"`c c #ff0000",
"`d c #003300",
"`e c #333300",
"`f c #663300",
"`g c #993300",
"`h c #cc3300",
"`i c #ff3300",
"`j c #006600",
"`k c #336600",
"`l c #666600",
"`m c #996600",
"`n c #cc6600",
"`o c #ff6600",
"`p c #009900",
"`q c #339900",
"`r c #669900",
"`s c #999900",
"`t c #cc9900",
"`u c #ff9900",
"`v c #00cc00",
"`w c #33cc00",
"`x c #66cc00",
"`y c #99cc00",
"`z c #cccc00",
"`A c #ffcc00",
"`B c #00ff00",
"`C c #33ff00",
"`D c #66ff00",
"`E c #99ff00",
"`F c #ccff00",
"`G c #ffff00",
"`H c #000033",
"`I c #330033",
"`J c #660033",
"`K c #990033",
"`L c #cc0033",
"`M c #ff0033",
"`N c #003333",
"`O c #333333",
"`P c #663333",
"`Q c #993333",
"`R c #cc3333",
"`S c #ff3333",
"`T c #006633",
"`U c #336633",
"`V c #666633",
"`W c #996633",
"`X c #cc6633",
"`Y c #ff6633",
"`Z c #009933",
"`0 c #339933",
"`1 c #669933",
"`2 c #999933",
"`3 c #cc9933",
"`4 c #ff9933",
"`5 c #00cc33",
"`6 c #33cc33",
"`7 c #66cc33",
"`8 c #99cc33",
".` c #cccc33",
".. c #ffcc33",
".# c #00ff33",
".a c #33ff33",
".b c #66ff33",
".c c #99ff33",
".d c #ccff33",
".e c #ffff33",
".f c #000066",
".g c #330066",
".h c #660066",
".i c #990066",
".j c #cc0066",
".k c #ff0066",
".l c #003366",
".m c #333366",
".n c #663366",
".o c #993366",
".p c #cc3366",
".q c #ff3366",
".r c #006666",
".s c #336666",
".t c #666666",
".u c #996666",
".v c #cc6666",
".w c #ff6666",
".x c #009966",
".y c #339966",
".z c #669966",
".A c #999966",
".B c #cc9966",
".C c #ff9966",
".D c #00cc66",
".E c #33cc66",
".F c #66cc66",
".G c #99cc66",
".H c #cccc66",
".I c #ffcc66",
".J c #00ff66",
".K c #33ff66",
".L c #66ff66",
".M c #99ff66",
".N c #ccff66",
".O c #ffff66",
".P c #000099",
".Q c #330099",
".R c #660099",
".S c #990099",
".T c #cc0099",
".U c #ff0099",
".V c #003399",
".W c #333399",
".X c #663399",
".Y c #993399",
".Z c #cc3399",
".0 c #ff3399",
".1 c #006699",
".2 c #336699",
".3 c #666699",
".4 c #996699",
".5 c #cc6699",
".6 c #ff6699",
".7 c #009999",
".8 c #339999",
"#` c #669999",
"#. c #999999",
"## c #cc9999",
"#a c #ff9999",
"#b c #00cc99",
"#c c #33cc99",
"#d c #66cc99",
"#e c #99cc99",
"#f c #cccc99",
"#g c #ffcc99",
"#h c #00ff99",
"#i c #33ff99",
"#j c #66ff99",
"#k c #99ff99",
"#l c #ccff99",
"#m c #ffff99",
"#n c #0000cc",
"#o c #3300cc",
"#p c #6600cc",
"#q c #9900cc",
"#r c #cc00cc",
"#s c #ff00cc",
"#t c #0033cc",
"#u c #3333cc",
"#v c #6633cc",
"#w c #9933cc",
"#x c #cc33cc",
"#y c #ff33cc",
"#z c #0066cc",
"#A c #3366cc",
"#B c #6666cc",
"#C c #9966cc",
"#D c #cc66cc",
"#E c #ff66cc",
"#F c #0099cc",
"#G c #3399cc",
"#H c #6699cc",
"#I c #9999cc",
"#J c #cc99cc",
"#K c #ff99cc",
"#L c #00cccc",
"#M c #33cccc",
"#N c #66cccc",
"#O c #99cccc",
"#P c #cccccc",
"#Q c #ffcccc",
"#R c #00ffcc",
"#S c #33ffcc",
"#T c #66ffcc",
"#U c #99ffcc",
"#V c #ccffcc",
"#W c #ffffcc",
"#X c #0000ff",
"#Y c #3300ff",
"#Z c #6600ff",
"#0 c #9900ff",
"#1 c #cc00ff",
"#2 c #ff00ff",
"#3 c #0033ff",
"#4 c #3333ff",
"#5 c #6633ff",
"#6 c #9933ff",
"#7 c #cc33ff",
"#8 c #ff33ff",
"a` c #0066ff",
"a. c #3366ff",
"a# c #6666ff",
"aa c #9966ff",
"ab c #cc66ff",
"ac c #ff66ff",
"ad c #0099ff",
"ae c #3399ff",
"af c #6699ff",
"ag c #9999ff",
"ah c #cc99ff",
"ai c #ff99ff",
"aj c #00ccff",
"ak c #33ccff",
"al c #66ccff",
"am c #99ccff",
"an c #ccccff",
"ao c #ffccff",
"ap c #00ffff",
"aq c #33ffff",
"ar c #66ffff",
"as c #99ffff",
"at c #ccffff",
"au c #ffffff",
"av c #000000",
"aw c #000000",
"ax c #000000",
"ay c #000000",
"az c #000000",
"aA c #000000",
"aB c #000000",
"aC c #000000",
"aD c #000000",
"aE c #000000",
"aF c #000000",
"aG c #000000",
"aH c #000000",
"aI c #000000",
"aJ c #000000",
"aK c #000000",
"aL c #000000",
"aM c #000000",
"aN c #000000",
"aO c #000000",
"aP c #000000",
"aQ c #000000",
"aR c #000000",
"aS c #000000",
"aT c #000000",
"aU c #000000",
"aV c #000000",
"aW c #000000",
"aX c #000000",
"aY c #000000",
"aZ c #000000",
"a0 c #000000",
"a1 c #000000",
"a2 c #000000",
"a3 c #000000",
"a4 c #000000",
"a5 c #000000",
"a6 c #000000",
"a7 c #000000",
"a8 c #000000",
/* pixels */
"``````````````.S````````````````",
"````````````.Sai#r.h````````````",
"``````````.Sai#r#r#r.S.h````````",
"````````.Sai#r#r#r#r#r.S.S.h````",
"``````.Sai#r#r#r#r#r#r#r#r.S````",
"````.Sai#r#r#r#r#r#r#r#r.Sav.S``",
"``.Sai#r#r#r#r#r#r#r#r.Sav.t.S``",
".Sai#r#r#r#r#r#r#r#r.Sav.t#..S``",
".S.S.S#r#r#r#r#r#r.Sav.t#.#..S``",
".S#.#P.S.S#r#r#r.Sav.t#.#..S````",
".S#.#P#P#..S.S.Sav#.#.#P.S``````",
".S.T#D#P#P#P#P.S#.#.#P.S````````",
"``.h.h.T#D#P#P#P#P#P.S``````````",
"``````.h.h.T#D#P#P.S````````````",
"``````````.h.h.T.S``````````````",
"``````````````.h````````````````"
};
