/* XPM */
static char * ModifActeXPM_xpm[] = {
"16 16 4 1",
" 	c None",
".	c #000000",
"+	c #FF8800",
"@	c #FF0000",
"                ",
"     .......    ",
"    .+++++++.   ",
"   .++++++++..  ",
"  .++++++++.@@. ",
"  .+++++++.@@@. ",
"  .++++++.@@@@. ",
"  .+++++.@@@@@. ",
"  .++++.@@@@@@. ",
"  .+++.@@@@@@@. ",
"  .++.@@@@@@@@. ",
"   ..@@@@@@@@.  ",
"    .@@@@@@@.   ",
"     .......    ",
"                ",
"                "};
