/* XPM */
static char *next[]={
"22 22 66 2",
"Qt c None",
".b c #000000",
".v c #060200",
".e c #0f0800",
".K c #120a00",
".F c #130a00",
".i c #160c00",
".q c #190d00",
".a c #211200",
".A c #221200",
".U c #582c00",
".Z c #5a2c00",
".5 c #5b2c00",
".8 c #5c2c00",
"#. c #5e2c00",
".P c #5e2f00",
"## c #773900",
".h c #8b4e00",
".u c #8e4d00",
".d c #975500",
".E c #995000",
".# c #a16b2d",
".p c #a75b00",
".z c #ad5c00",
".J c #b85f00",
".O c #bd6000",
".T c #bf6000",
".Y c #c26000",
".4 c #c56000",
".1 c #c66000",
".7 c #c76000",
".g c #cd7200",
".t c #d97400",
".I c #da7100",
".n c #db7800",
".o c #db7902",
".N c #dd7000",
".S c #df7000",
".s c #df7800",
".c c #df9645",
".m c #e08d34",
".f c #e19646",
".x c #e37800",
".y c #e37902",
".k c #e39644",
".l c #e39647",
".X c #e47000",
".D c #e47700",
".r c #e59644",
".j c #e5a058",
".C c #e67800",
".2 c #e77000",
".w c #e99644",
".H c #ea7800",
".B c #eb9644",
".M c #ee7800",
".G c #ee9644",
".R c #f17800",
".L c #f19644",
".Q c #f39644",
".0 c #f57600",
".W c #f57800",
".6 c #f77600",
".V c #f79644",
".3 c #f87800",
".9 c #f97600",
"QtQtQtQtQtQtQtQtQtQtQtQtQtQtQtQtQtQtQtQtQtQt",
"QtQtQtQtQtQtQtQtQtQtQtQtQtQtQtQtQtQtQtQtQtQt",
"QtQtQtQtQtQtQtQtQtQtQtQtQtQtQtQtQtQtQtQtQtQt",
"QtQtQtQtQtQtQtQtQtQtQtQtQtQtQtQtQtQtQtQtQtQt",
"QtQtQtQtQtQtQtQtQtQtQtQtQtQtQtQtQtQtQtQtQtQt",
"QtQtQtQtQtQtQtQtQtQtQt.#.aQtQtQtQtQtQtQtQtQt",
"QtQtQtQtQtQtQtQtQtQt.b.c.d.eQtQtQtQtQtQtQtQt",
"QtQtQtQt.b.b.b.b.b.b.b.f.g.h.iQtQtQtQtQtQtQt",
"QtQtQt.b.j.k.k.k.k.k.l.m.n.o.p.qQtQtQtQtQtQt",
"QtQtQt.b.r.s.s.s.s.s.s.s.s.s.t.u.vQtQtQtQtQt",
"QtQtQt.b.w.x.x.x.x.x.x.x.x.x.x.y.z.AQtQtQtQt",
"QtQtQt.b.B.C.C.C.C.C.C.C.C.C.C.C.D.E.FQtQtQt",
"QtQtQt.b.G.H.H.H.H.H.H.H.H.H.H.H.I.J.KQtQtQt",
"QtQtQt.b.L.M.M.M.M.M.M.M.M.M.M.N.O.PQtQtQtQt",
"QtQtQt.b.Q.R.R.R.R.R.R.R.R.R.S.T.UQtQtQtQtQt",
"QtQtQt.b.V.W.W.W.W.W.W.W.W.X.Y.ZQtQtQtQtQtQt",
"QtQtQt.b.0.1.1.1.1.1.2.3.2.4.5QtQtQtQtQtQtQt",
"QtQtQtQt.b.b.b.b.b.b.b.6.7.8QtQtQtQtQtQtQtQt",
"QtQtQtQtQtQtQtQtQtQt.b.9#.QtQtQtQtQtQtQtQtQt",
"QtQtQtQtQtQtQtQtQtQtQt##QtQtQtQtQtQtQtQtQtQt",
"QtQtQtQtQtQtQtQtQtQtQtQtQtQtQtQtQtQtQtQtQtQt",
"QtQtQtQtQtQtQtQtQtQtQtQtQtQtQtQtQtQtQtQtQtQt"};
