/* XPM */
static char *printer[] = {
/* width height num_colors chars_per_pixel */
"    32    32      256            2",
/* colors */
"`` c None",
"`. c #ededf3",
"`# c #c4c4d7",
"`a c #afafc8",
"`b c #adadc6",
"`c c #d4d4e0",
"`d c #b0b0c9",
"`e c #aeaec7",
"`f c #b7b7ce",
"`g c #ccccdd",
"`h c #b3b3cc",
"`i c #e4e4e8",
"`j c #fdfdfd",
"`k c #9090b3",
"`l c #dfe1ec",
"`m c #fbfdff",
"`n c #9091ae",
"`o c #d3d3d3",
"`p c #7c7da7",
"`q c #f1f8ff",
"`r c #dfe6f2",
"`s c #77778a",
"`t c #e4e4e4",
"`u c #9d9db7",
"`v c #b8bfd9",
"`w c #eaf5ff",
"`x c #8488a5",
"`y c #b1b1b1",
"`z c #f7f7f7",
"`A c #eaeaee",
"`B c #7e81ac",
"`C c #e0f0ff",
"`D c #b2bcd9",
"`E c #767680",
"`F c #e8e8e8",
"`G c #8a8aac",
"`H c #cadbf2",
"`I c #d9ecff",
"`J c #5f5f75",
"`K c #cccccc",
"`L c #fcfcfc",
"`M c #b3b3c9",
"`N c #a8b7d9",
"`O c #cfe7ff",
"`P c #6d6f92",
"`Q c #a8a8a8",
"`R c #f6f6f6",
"`S c #e4e4ea",
"`T c #8b95bf",
"`U c #c8e4ff",
"`V c #8a95bf",
"`W c #7e7e7e",
"`X c #eeeeee",
"`Y c #7f83ad",
"`Z c #bedfff",
"`0 c #92a2cc",
"`1 c #60606a",
"`2 c #8f8fb1",
"`3 c #b2d4f9",
"`4 c #b7dbff",
"`5 c #b5daff",
"`6 c #b0d7ff",
"`7 c #9bbae6",
"`8 c #5a5a6a",
".` c #cfcfcf",
".. c #ababc5",
".# c #add6ff",
".a c #aad0ff",
".b c #a8ccff",
".c c #a5c8ff",
".d c #a2c5ff",
".e c #9fc2ff",
".f c #99bcff",
".g c #accaff",
".h c #b9d3ff",
".i c #c6d4f2",
".j c #ccccd6",
".k c #858585",
".l c #e2e2e2",
".m c #979797",
".n c #b3b3b9",
".o c #adb6e6",
".p c #a6b3ff",
".q c #b9c5ff",
".r c #ccd6ff",
".s c #dfe6ff",
".t c #dee3f1",
".u c #eaeaea",
".v c #e0e0e0",
".w c #d5d5d5",
".x c #a0a0a0",
".y c #6f6f6f",
".z c #aaaaaa",
".A c #9a9a9a",
".B c #f8f8f8",
".C c #fafafa",
".D c #dadada",
".E c #c7c7c7",
".F c #c1c1c1",
".G c #b2b2b2",
".H c #b9b9b9",
".I c #bfbfbf",
".J c #c6c6c6",
".K c #cdcdcd",
".L c #a2a2a2",
".M c #ababab",
".N c #878787",
".O c #dbdbdb",
".P c #d7d7d7",
".Q c #9f9f9f",
".R c #b6b6b6",
".S c #adadad",
".T c #8e8e8e",
".U c #9d9d9d",
".V c #a1a1a1",
".W c #dedede",
".X c #c5c5c5",
".Y c #7d7d7d",
".Z c #b8b8b8",
".0 c #f9f9f9",
".1 c #c4c4c4",
".2 c #808080",
".3 c #969696",
".4 c #9b9b9b",
".5 c #b0b0b0",
".6 c #afafaf",
".7 c #949494",
".8 c #8a8a8a",
"#` c #a3a3a3",
"#. c #bdbdbd",
"## c #ededed",
"#a c #ebebeb",
"#b c #e7e7e7",
"#c c #e6e6e6",
"#d c #b5b5b5",
"#e c #c8c8c8",
"#f c #797979",
"#g c #8d8d8d",
"#h c #d6d6d6",
"#i c #d1d1d1",
"#j c #dfdfdf",
"#k c #f4f4f4",
"#l c #f2f2f2",
"#m c #f1f1f1",
"#n c #efefef",
"#o c #bebebe",
"#p c #d0d0d0",
"#q c #616161",
"#r c #8c8c8c",
"#s c #d9d9d9",
"#t c #bbbbbb",
"#u c #cacaca",
"#v c #888888",
"#w c #707070",
"#x c #d2d2d2",
"#y c #cecece",
"#z c #e3e3e3",
"#A c #e1e1e1",
"#B c #d8d8d8",
"#C c #c3c3c3",
"#D c #898989",
"#E c #555555",
"#F c #7b7b7b",
"#G c #d4d4d4",
"#H c #b3b3b3",
"#I c #b4b4b4",
"#J c #747474",
"#K c #515151",
"#L c #787878",
"#M c #aeaeae",
"#N c #818181",
"#O c #646464",
"#P c #666666",
"#Q c #7a7a7a",
"#R c #505050",
"#S c #b7b7b7",
"#T c #999999",
"#U c #a5a5a5",
"#V c #a7a7a7",
"#W c #a4a4a4",
"#X c #8f8f8f",
"#Y c #757575",
"#Z c #717171",
"#0 c #8b8b8b",
"#1 c #acacac",
"#2 c #7f9e6f",
"#3 c #7abf57",
"#4 c #4e4e4e",
"#5 c #9e9e9e",
"#6 c #cbcbcb",
"#7 c #e5e5e5",
"#8 c #a9a9a9",
"a` c #777777",
"a. c #838383",
"a# c #bcbcbc",
"aa c #81a071",
"ab c #77af5a",
"ac c #4d4d4d",
"ad c #929292",
"ae c #4b4b4b",
"af c #fbfbfb",
"ag c #767676",
"ah c #676767",
"ai c #909090",
"aj c #4f4f4f",
"ak c #343434",
"al c #4a4a4a",
"am c #9c9c9c",
"an c #fefefe",
"ao c #848484",
"ap c #7f7f7f",
"aq c #727272",
"ar c #e9e9e9",
"as c #5b5b5b",
"at c #6e6e6e",
"au c #585858",
"av c #606060",
"aw c #6c6c6c",
"ax c #bababa",
"ay c #3e3e3e",
"az c #464646",
"aA c #414141",
"aB c #828282",
"aC c #aeaebb",
"aD c #8686ad",
"aE c #6e6e7b",
"aF c #f3f3f3",
"aG c #a6a6a6",
"aH c #525252",
"aI c #454545",
"aJ c #5a5a5a",
"aK c #c0c0c0",
"aL c #4e4e51",
"aM c #676781",
"aN c #9393c2",
"aO c #9292b8",
"aP c #d4d4da",
"aQ c #474747",
"aR c #494949",
"aS c #5f5f5f",
"aT c #5d5d5d",
"aU c #363636",
"aV c #3a3a3a",
"aW c #4c4c4c",
"aX c #434346",
"aY c #a6a6b0",
"aZ c #686868",
"a0 c #3d3d3d",
"a1 c #868686",
"a2 c #535353",
"a3 c #f0f0f0",
"a4 c #000000",
"a5 c #000000",
"a6 c #000000",
"a7 c #000000",
"a8 c #000000",
/* pixels */
"`````.`#`a`b`c`d`e`f`g`h`h`h`e`i````````````````````````````````",
"`````j`k`l`m`m`m`m`m`m`m`m`m`m`n`o``````````````````````````````",
"```````i`p`q`q`q`q`q`q`q`q`q`q`r`s`t````````````````````````````",
"`````````u`v`w`w`w`w`w`w`w`w`w`w`x`y`z``````````````````````````",
"`````````A`B`C`C`C`C`C`C`C`C`C`C`D`E`F``````````````````````````",
"```````````G`H`I`I`I`I`I`I`I`I`I`H`J`K`L````````````````````````",
"```````````M`N`O`O`O`O`O`O`O`O`O`O`P`Q`R````````````````````````",
"```````````S`T`U`U`U`U`U`U`U`U`U`U`V`W`X````````````````````````",
"```````````j`Y`Z`Z`Z`Z`Z`Z`Z`Z`Z`Z`0`1`t````````````````````````",
"`````````````2`3`4`4`4`4`4`4`4`5`6`7`8.``L``````````````````````",
"````````````..`7.#.a.b.c.d.e.f.g.h.i.j.k.l``````````````````````",
"``````````.m.n.o.p.p.q.r.s.t.u.v.w`o.w.x.y.z`t`j````````````````",
"``````````.A`z.B.C.D.E.F.G.H.I.J.K`o`o.L.M`y.L.N.O`j````````````",
"```````R.P.Q.u.u.u.R.M.G.H.I.S.Q.T.U.V.F.l.W.R.X.Y.Z.0``````````",
"````.1.2.3.m.z.4.5.6.7.8.3#`#..w`X###a.u`F#b#c#d#e#f.6`z````````",
"``.P#g.D#h#i#h#j.5.A#i#k#l#m#n`X###a.u`F#b#c.O#o.M#p#q.1`L``````",
"``#r#s.W.D#h#i#p#n`o#t#l#m#n`X###a.u#j#u.R`y#o.`.v.W#v#w`t``````",
"```W#c.l.W.D#h#i.`#n#i.X#n`X`F#x#..G#t#y.v#z#A#B.K#C#D#E.Z`z````",
"``#F.P#c.l.W.D#h#i#G#m.I.H#H.Z#i#z#b#c#A.`#C.R.R#I.V#J#K#`#k````",
"``#L#L.Z#c.l.W.D#h#i.W`X.l#a.u`F.D.E#d.S.5#M.m#N#O#P#Q#R.x#k````",
"``#N#S#T.y#U.D.W.D#h`o#a#A#y.Z`Q#V.z#W#X#Y#Z#0#1#2#3#P#4.x#k````",
"``#5#6#l#7#8a`.7#y.D#h#H#5.L#W.Aa.#J#Y#v#V.Ha#.Iaaab#Lac.x#k````",
"``.Q#y`R#l`X#A#Va`ad#C.S#X#N.y#J#X#V#H.R.Ha#.I#C.V#e#Dae.x#k````",
"``.U#paf`R#l`X.u#c#Iagah#F#0.L.S.5#H.R.H#S.Laiajak.H#fal.x#k````",
"``am.Vanaf`R#l`X.u#c.l.M#V.z.S.5#H.R#Taoagap.T.U#V#gaqal.U#k````",
"``ara`as#Caf`R#l`X.u#c.R.z.S.5#0atauav#wap.T.U.6.J#c.Caw#X#m````",
"````.l.7aeat#h`R#l`X.uax.S.5.May#Kav#wap.T.U.X.u```Ka`az#r`X````",
"``````#m.K#LaAaB.u#l`X#..5#HaCaDaE#wap.4#xaF#laGaHaIaJa..1.C````",
"`````````j.u#.avaI.3#laK#`.yaLaMaNaOaP``#caBaQaRaSai.E.u.C``````",
"````````````.C.l.V#4#4aTaUaVaIaWaXaMaYaZa0ajaZ#T.``X`L``````````",
"````````````````#k#ha1aWaWav#g#S#.#waea2aq`Q#s#m`j``````````````",
"`````````````````````X.E#M#ha3.0`L`F.F#d.l`R````````````````````"
};
