/* XPM */
static char *valider[]={
"22 22 69 2",
"Qt c None",
".# c #000000",
".O c #020202",
".P c #070707",
".K c #2d0000",
".J c #303030",
".B c #3a0000",
".a c #3a0e0e",
".W c #3c0000",
".1 c #410000",
".7 c #430000",
"## c #440000",
".x c #4d0000",
".A c #4e4e4e",
".E c #545454",
".N c #6c0a0a",
".j c #721010",
".Q c #750000",
".i c #770000",
"#c c #773f3f",
".b c #790000",
".s c #808080",
".V c #975050",
".X c #980000",
".c c #9a0000",
".r c #9b1414",
".2 c #9c0000",
".h c #9f0000",
".d c #a00000",
".H c #a0a0a0",
".G c #a30000",
".k c #a32727",
"#b c #a36b6b",
".e c #a40000",
"#. c #a56d6d",
".6 c #a66d6d",
".R c #a70000",
".0 c #a76d6d",
".f c #a80000",
".L c #ac0000",
".g c #ae0000",
".F c #b20000",
"#a c #b82b2b",
".C c #bf0000",
".t c #c40000",
".S c #c50000",
".l c #d20909",
".m c #d70000",
".3 c #dd0000",
".w c #dd2b2b",
".n c #de0000",
".o c #e40000",
".8 c #e61515",
".p c #e80000",
".u c #ea0000",
".q c #ec0000",
".4 c #ec1616",
".y c #ef0000",
".v c #ef0101",
".9 c #ef4040",
".Y c #f01616",
".5 c #f34040",
".M c #f40909",
".T c #f51616",
".I c #f62525",
".z c #f63030",
".D c #f63333",
".Z c #f74040",
".U c #f93434",
"QtQtQtQtQtQtQtQtQtQtQtQtQtQtQtQtQtQtQtQtQtQt",
"QtQtQtQtQtQtQtQtQtQtQtQtQtQtQtQtQtQtQtQtQtQt",
"QtQtQtQtQtQtQtQtQtQtQtQtQtQtQtQtQtQtQtQtQtQt",
"QtQtQtQtQtQtQtQtQt.#.#.#.#.#QtQtQtQtQtQtQtQt",
"QtQtQtQtQtQtQt.a.b.c.d.e.f.g.h.iQtQtQtQtQtQt",
"QtQtQtQtQtQt.a.a.j.k.l.m.n.o.p.q.rQtQtQtQtQt",
"QtQtQtQtQt.a.a.s.s.s.s.t.n.o.u.v.wQtQtQtQtQt",
"QtQtQtQt.a.a.sQtQtQt.x.g.n.o.u.y.z.AQtQtQtQt",
"QtQtQt.s.a.sQtQtQtQt.B.C.n.o.u.y.D.EQtQtQtQt",
"QtQtQt.x.sQtQtQtQtQt.#.F.n.o.u.y.D.EQtQtQtQt",
"QtQtQt.#.sQtQtQtQtQt.#.G.n.o.u.y.D.EQtQtQtQt",
"QtQtQt.#.HQtQtQtQtQt.#.G.n.o.u.y.D.EQtQtQtQt",
"QtQtQt.#QtQtQtQtQtQt.#.e.n.o.u.y.I.JQtQtQtQt",
"QtQtQt.#QtQtQt.#.#.#.K.L.n.o.u.y.M.N.#.OQtQt",
"QtQtQt.PQtQtQtQt.#.Q.R.S.n.o.u.y.T.U.VQtQtQt",
"QtQtQtQtQtQtQtQtQt.W.X.m.n.o.u.Y.Z.0QtQtQtQt",
"QtQtQtQtQtQtQtQtQtQt.1.2.3.o.4.5.6QtQtQtQtQt",
"QtQtQtQtQtQtQtQtQtQtQt.7.d.8.9#.QtQtQtQtQtQt",
"QtQtQtQtQtQtQtQtQtQtQtQt###a#bQtQtQtQtQtQtQt",
"QtQtQtQtQtQtQtQtQtQtQtQtQt#cQtQtQtQtQtQtQtQt",
"QtQtQtQtQtQtQtQtQtQtQtQtQtQtQtQtQtQtQtQtQtQt",
"QtQtQtQtQtQtQtQtQtQtQtQtQtQtQtQtQtQtQtQtQtQt"};
