<?xml version="1.0" encoding="UTF-8" standalone="no"?>
<svg
   xmlns:dc="http://purl.org/dc/elements/1.1/"
   xmlns:cc="http://web.resource.org/cc/"
   xmlns:rdf="http://www.w3.org/1999/02/22-rdf-syntax-ns#"
   xmlns:svg="http://www.w3.org/2000/svg"
   xmlns="http://www.w3.org/2000/svg"
   xmlns:xlink="http://www.w3.org/1999/xlink"
   xmlns:sodipodi="http://sodipodi.sourceforge.net/DTD/sodipodi-0.dtd"
   xmlns:inkscape="http://www.inkscape.org/namespaces/inkscape"
   width="407.50079"
   height="407.76578"
   id="svg3675"
   sodipodi:version="0.32"
   inkscape:version="0.45"
   sodipodi:docname="Euro_symbol_black.svg"
   inkscape:output_extension="org.inkscape.output.svg.inkscape"
   sodipodi:docbase="C:\Documents and Settings\Sigurd\Mine dokumenter\Mine bilder"
   sodipodi:modified="true"
   version="1.0">
  <metadata
     id="metadata3682">
    <rdf:RDF>
      <cc:Work
         rdf:about="">
        <dc:format>image/svg+xml</dc:format>
        <dc:type
           rdf:resource="http://purl.org/dc/dcmitype/StillImage" />
      </cc:Work>
    </rdf:RDF>
  </metadata>
  <defs
     id="defs3680">
    <linearGradient
       inkscape:collect="always"
       id="linearGradient12421">
      <stop
         style="stop-color:#ffad00;stop-opacity:1;"
         offset="0"
         id="stop12423" />
      <stop
         style="stop-color:#ffad00;stop-opacity:0;"
         offset="1"
         id="stop12425" />
    </linearGradient>
    <linearGradient
       inkscape:collect="always"
       xlink:href="#linearGradient12421"
       id="linearGradient12427"
       x1="-81.83683"
       y1="68.190742"
       x2="323.29596"
       y2="232.67467"
       gradientUnits="userSpaceOnUse"
       gradientTransform="matrix(0.9819171,0,0,0.9819171,-14.191755,-14.39962)" />
  </defs>
  <sodipodi:namedview
     inkscape:window-height="719"
     inkscape:window-width="1024"
     inkscape:pageshadow="2"
     inkscape:pageopacity="0.0"
     guidetolerance="10.0"
     gridtolerance="10.0"
     objecttolerance="10.0"
     borderopacity="1.0"
     bordercolor="#666666"
     pagecolor="#ffffff"
     id="base"
     inkscape:zoom="0.81424407"
     inkscape:cx="318.88462"
     inkscape:cy="206.096"
     inkscape:window-x="-4"
     inkscape:window-y="-4"
     inkscape:current-layer="svg3675" />
  <path
     id="path4653"
     d="M 72.102142,161.56939 L 31.683877,161.56939 L 17.312938,193.90401 L 66.713041,193.90401 C 65.814857,199.29312 65.814857,204.68221 65.814857,210.07131 C 65.814857,215.46042 65.814857,220.84951 66.713041,226.23862 L 31.683877,226.23862 L 17.312938,258.57324 L 72.102142,258.57324 C 94.556732,341.20614 171.35144,404.079 259.82253,404.079 C 308.77354,404.079 354.58091,384.76804 389.16098,353.33161 L 389.16098,306.62606 C 359.52092,346.14614 312.36628,371.74438 259.82253,371.74438 C 187.96784,371.74438 126.44225,324.14064 105.78403,258.57324 L 324.49176,258.57324 L 338.86269,226.23862 L 99.047643,226.23862 C 98.149464,220.84951 98.149464,215.46042 98.149464,210.07131 C 98.149464,205.5804 98.149464,199.29312 99.047643,193.90401 L 353.23364,193.90401 L 367.60457,161.56939 L 105.78403,161.56939 C 125.99316,96.900167 187.06965,48.398251 259.82253,48.398251 C 316.4081,48.398251 359.52092,73.996487 389.16098,113.06748 L 403.53192,81.181956 C 367.60457,41.212782 316.4081,16.063639 259.82253,16.063639 C 170.90235,16.063639 94.107642,79.834681 72.102142,161.56939 z "
     style="fill:#ffad00;fill-opacity:1;stroke:none" />
  <path
     style="fill:#ffad00;fill-opacity:1;fill-rule:evenodd;stroke:none;stroke-width:1px;stroke-linecap:butt;stroke-linejoin:miter;stroke-opacity:1"
     d="M 17.642492,258.45345 L 3.9292773,245.23 L 32.824978,241.31194 L 17.642492,258.45345 z "
     id="path7568" />
  <path
     style="fill:#ffad00;fill-opacity:1;fill-rule:evenodd;stroke:none;stroke-width:1px;stroke-linecap:butt;stroke-linejoin:miter;stroke-opacity:1"
     d="M 17.397614,193.56057 L 3.684399,181.09273 L 32.5801,177.39856 L 17.397614,193.56057 z "
     id="path11446" />
  <path
     style="fill:#ffe400;fill-opacity:1;stroke:none"
     d="M 58.600131,149.19255 L 18.181866,149.19255 L 3.8109268,181.52717 L 53.21103,181.52717 C 52.312845,186.91628 52.312845,192.30537 52.312845,197.69448 C 52.312845,203.08358 52.312845,208.47267 53.21103,213.86178 L 18.181866,213.86178 L 3.8109268,246.1964 L 58.600131,246.1964 C 81.054724,328.8293 157.84943,391.70216 246.32052,391.70216 C 295.27153,391.70216 341.0789,372.3912 375.65898,340.95478 L 375.65898,294.24922 C 346.01891,333.7693 298.86427,359.36754 246.32052,359.36754 C 174.46583,359.36754 112.94024,311.7638 92.282022,246.1964 L 310.98975,246.1964 L 325.36068,213.86178 L 85.545639,213.86178 C 84.64746,208.47267 84.64746,203.08358 84.64746,197.69448 C 84.64746,193.20356 84.64746,186.91628 85.545639,181.52717 L 339.73163,181.52717 L 354.10257,149.19255 L 92.282022,149.19255 C 112.49115,84.523323 173.56764,36.021407 246.32052,36.021407 C 302.9061,36.021407 346.01891,61.619643 375.65898,100.69064 L 390.02991,68.805112 C 354.10257,28.835938 302.9061,3.6867949 246.32052,3.6867949 C 157.40034,3.6867949 80.605632,67.457837 58.600131,149.19255 z "
     id="path3677" />
  <path
     style="fill:#fff500;fill-opacity:1;fill-rule:evenodd;stroke:none;stroke-width:1px;stroke-linecap:butt;stroke-linejoin:miter;stroke-opacity:1"
     d="M 388.87879,307.91898 L 375.65533,295.18528 L 375.65533,340.73274 L 389.36854,352.48692 L 388.87879,307.91898 z "
     id="path5624" />
  <path
     style="fill:#fff500;fill-opacity:1;fill-rule:evenodd;stroke:none;stroke-width:1px;stroke-linecap:butt;stroke-linejoin:miter;stroke-opacity:1"
     d="M 310.51756,245.71976 L 324.23077,258.45345 L 338.43375,226.12945 L 324.23077,213.88551 L 310.51756,245.71976 z "
     id="path6595" />
  <path
     style="fill:#fff500;fill-opacity:1;fill-rule:evenodd;stroke:none;stroke-width:1px;stroke-linecap:butt;stroke-linejoin:miter;stroke-opacity:1"
     d="M 339.65814,181.31663 L 353.37135,194.05033 L 367.57433,161.72632 L 353.37135,149.48239 L 339.65814,181.31663 z "
     id="path7566" />
  <path
     style="fill:#fff500;fill-opacity:1;fill-rule:evenodd;stroke:none;stroke-width:1px;stroke-linecap:butt;stroke-linejoin:miter;stroke-opacity:1"
     d="M 375.9002,100.99638 L 389.61341,113.73008 L 403.81639,81.406067 L 389.61341,69.162131 L 375.9002,100.99638 z "
     id="path11448" />
  <path
     id="path11450"
     d="M 58.600131,149.19255 L 18.181866,149.19255 L 3.8109268,181.52717 L 53.21103,181.52717 C 52.312845,186.91628 52.312845,192.30537 52.312845,197.69448 C 52.312845,203.08358 52.312845,208.47267 53.21103,213.86178 L 18.181866,213.86178 L 3.8109268,246.1964 L 58.600131,246.1964 C 81.054724,328.8293 157.84943,391.70216 246.32052,391.70216 C 295.27153,391.70216 341.0789,372.3912 375.65898,340.95478 L 375.65898,294.24922 C 346.01891,333.7693 298.86427,359.36754 246.32052,359.36754 C 174.46583,359.36754 112.94024,311.7638 92.282022,246.1964 L 310.98975,246.1964 L 325.36068,213.86178 L 85.545639,213.86178 C 84.64746,208.47267 84.64746,203.08358 84.64746,197.69448 C 84.64746,193.20356 84.64746,186.91628 85.545639,181.52717 L 339.73163,181.52717 L 354.10257,149.19255 L 92.282022,149.19255 C 112.49115,84.523323 173.56764,36.021407 246.32052,36.021407 C 302.9061,36.021407 346.01891,61.619643 375.65898,100.69064 L 390.02991,68.805112 C 354.10257,28.835938 302.9061,3.6867949 246.32052,3.6867949 C 157.40034,3.6867949 80.605632,67.457837 58.600131,149.19255 z "
     style="fill:url(#linearGradient12427);fill-opacity:1;stroke:none" />
</svg>
