/* XPM */

static const char *filenew_Icon[]={
"22 22 49 1",
". c None",
"d c #000000",
"S c #2b2b2b",
"c c #323232",
"b c #3b3b3b",
"a c #3e3e3e",
"# c #454545",
"o c #969696",
"U c #979797",
"j c #989898",
"n c #a1a1a1",
"R c #a3a3a3",
"P c #a7a7a7",
"w c #a8a8a8",
"N c #ababab",
"L c #b0b0b0",
"K c #b3b3b3",
"H c #b8b8b8",
"F c #bbbbbb",
"T c #bdbdbd",
"C c #c1c1c1",
"z c #c4c4c4",
"O c #c5c5c5",
"v c #c6c6c6",
"Q c #c7c7c7",
"r c #c9c9c9",
"M c #cacaca",
"m c #cdcdcd",
"i c #cfcfcf",
"f c #d2d2d2",
"J c #d4d4d4",
"I c #d8d8d8",
"u c #d9d9d9",
"G c #dddddd",
"E c #dedede",
"D c #e1e1e1",
"B c #e4e4e4",
"A c #e6e6e6",
"y c #e8e8e8",
"x c #eaeaea",
"t c #ededed",
"s c #eeeeee",
"q c #f2f2f2",
"p c #f3f3f3",
"l c #f5f5f5",
"k c #f6f6f6",
"h c #f8f8f8",
"g c #f9f9f9",
"e c #fcfcfc",
"......................",
"......................",
".....#abbbbbcd........",
".....aeeeeeefdd.......",
".....bghhhhhidjd......",
".....bklllllmdnod.....",
".....bpqqqqqrddddd....",
".....bstttttuvvvwd....",
".....bxyyyyyyyyyzd....",
".....bABBBBBBBBBCd....",
".....bDEEEEEEEEEFd....",
".....bGuuuuuuuuuHd....",
".....bIJJJJJJJJJKd....",
".....bJiiiiiiiiiLd....",
".....biMMMMMMMMMNd....",
".....bMOOOOOOOOOPd....",
".....bQCCCCCCCCCRd....",
".....STnnnnnnnnnUd....",
".....ddddddddddddd....",
"......................",
"......................",
"......................"};

