/* XPM */
static const char *filetxt_Icon[]={
"22 22 45 1",
". c None",
"d c #000000",
"O c #2b2b2b",
"c c #323232",
"b c #3b3b3b",
"a c #3e3e3e",
"# c #454545",
"l c #585858",
"p c #969696",
"Q c #979797",
"j c #989898",
"o c #a1a1a1",
"N c #a3a3a3",
"v c #a8a8a8",
"K c #ababab",
"I c #b3b3b3",
"E c #bbbbbb",
"P c #bdbdbd",
"B c #c1c1c1",
"y c #c4c4c4",
"L c #c5c5c5",
"u c #c6c6c6",
"M c #c7c7c7",
"s c #c9c9c9",
"J c #cacaca",
"n c #cdcdcd",
"i c #cfcfcf",
"f c #d2d2d2",
"H c #d4d4d4",
"G c #d8d8d8",
"F c #d9d9d9",
"D c #dedede",
"C c #e1e1e1",
"A c #e4e4e4",
"z c #e6e6e6",
"x c #e8e8e8",
"w c #eaeaea",
"t c #ededed",
"r c #f2f2f2",
"q c #f3f3f3",
"m c #f5f5f5",
"k c #f6f6f6",
"h c #f8f8f8",
"g c #f9f9f9",
"e c #fcfcfc",
"......................",
"......................",
".....#abbbbbcd........",
".....aeeeeeefdd.......",
".....bghhhhhidjd......",
".....bkllmllndopd.....",
".....bqrrrrrsddddd....",
".....bqltltlluuuvd....",
".....bwxxxxxxxxxyd....",
".....bzllAlllAlABd....",
".....bCDDDDDDDDDEd....",
".....blFlFlllFlFld....",
".....bGHHHHHHHHHId....",
".....bHllliliilild....",
".....biJJJJJJJJJKd....",
".....bJllLLlLlLLld....",
".....bMBBBBBBBBBNd....",
".....OPoooooooooQd....",
".....ddddddddddddd....",
"......................",
"......................",
"......................"};
