/* XPM */
static char * Pingouin00_xpm[] = {
"50 57 256 2",
"  	c None",
". 	c #151515",
"+ 	c #191919",
"@ 	c #212121",
"# 	c #2A2928",
"$ 	c #313131",
"% 	c #353535",
"& 	c #3A3A3A",
"* 	c #2D2D2D",
"= 	c #252525",
"- 	c #1D1D1D",
"; 	c #414141",
"> 	c #4D4D4D",
", 	c #595959",
"' 	c #656565",
") 	c #6D6D6D",
"! 	c #727272",
"~ 	c #6B6B6B",
"{ 	c #626262",
"] 	c #555555",
"^ 	c #4A4A4A",
"/ 	c #757575",
"( 	c #878787",
"_ 	c #969696",
": 	c #A2A2A2",
"< 	c #A8A8A8",
"[ 	c #AEAEAE",
"} 	c #AAAAAA",
"| 	c #919191",
"1 	c #7E7E7E",
"2 	c #464646",
"3 	c #989898",
"4 	c #BEBEBE",
"5 	c #CACACA",
"6 	c #D4D4D4",
"7 	c #D8D8D8",
"8 	c #E2E2E2",
"9 	c #ECECEC",
"0 	c #DEDEDE",
"a 	c #C6C6C6",
"b 	c #B9B9B9",
"c 	c #C2C2C2",
"d 	c #C4C4C4",
"e 	c #A6A6A6",
"f 	c #8C8C8C",
"g 	c #3D3D3D",
"h 	c #797979",
"i 	c #B4B4B4",
"j 	c #DADADA",
"k 	c #E5E5E5",
"l 	c #F0F0F0",
"m 	c #FFFFFF",
"n 	c #111111",
"o 	c #0D0D0D",
"p 	c #D6D6D6",
"q 	c #696969",
"r 	c #898989",
"s 	c #ACACAC",
"t 	c #DCDCDC",
"u 	c #EAEAEA",
"v 	c #F3F3F3",
"w 	c #F8F8F8",
"x 	c #FCFCFC",
"y 	c #000000",
"z 	c #BCBCBC",
"A 	c #9C9C9C",
"B 	c #949494",
"C 	c #E8E8E8",
"D 	c #FAFAFA",
"E 	c #FDFDFD",
"F 	c #848484",
"G 	c #EEEEEE",
"H 	c #D0D0D0",
"I 	c #FEFEFE",
"J 	c #505050",
"K 	c #B1B1B1",
"L 	c #FBFBFB",
"M 	c #040404",
"N 	c #D2D2D2",
"O 	c #B6B6B6",
"P 	c #F7F7F7",
"Q 	c #CCCCCC",
"R 	c #5E5E5E",
"S 	c #090909",
"T 	c #707474",
"U 	c #EDFBFB",
"V 	c #000808",
"W 	c #7F0303",
"X 	c #AD1717",
"Y 	c #8A6B6B",
"Z 	c #C5D3D3",
"` 	c #F5F5F5",
" .	c #818181",
"..	c #7B7B7B",
"+.	c #B90000",
"@.	c #FF0000",
"#.	c #EC0000",
"$.	c #757070",
"%.	c #EAF2F2",
"&.	c #EFEFEF",
"*.	c #9F9F9F",
"=.	c #190000",
"-.	c #5E4646",
";.	c #F2F7F7",
">.	c #F4F4F4",
",.	c #3B0000",
"'.	c #A30000",
").	c #764444",
"!.	c #EFF6F6",
"~.	c #CECECE",
"{.	c #987676",
"].	c #767B7B",
"^.	c #959999",
"/.	c #A5ACAC",
"(.	c #BCCACA",
"_.	c #F5FAFD",
":.	c #151506",
"<.	c #B7B7B5",
"[.	c #A4A42D",
"}.	c #727256",
"|.	c #EAEBEE",
"1.	c #E0E0E0",
"2.	c #D6D640",
"3.	c #B1B191",
"4.	c #D2D236",
"5.	c #EAEBCD",
"6.	c #76777C",
"7.	c #CDCD33",
"8.	c #FFFFE9",
"9.	c #717276",
"0.	c #7C7C7C",
"a.	c #CCCC59",
"b.	c #FFFFF9",
"c.	c #7A7A7E",
"d.	c #D4D485",
"e.	c #A9A98D",
"f.	c #F9F9F9",
"g.	c #C8C8C8",
"h.	c #666616",
"i.	c #94942E",
"j.	c #E6E6E6",
"k.	c #C0C0C0",
"l.	c #0F0F05",
"m.	c #8B8B42",
"n.	c #FFFF84",
"o.	c #FBFBD7",
"p.	c #2F2F34",
"q.	c #DCDCDF",
"r.	c #716E31",
"s.	c #7D7D00",
"t.	c #4F4F06",
"u.	c #23230B",
"v.	c #4B4B2A",
"w.	c #97975F",
"x.	c #F0F09F",
"y.	c #FFFFCC",
"z.	c #FFFFF3",
"A.	c #DEDEE5",
"B.	c #D5D62E",
"C.	c #FFFF68",
"D.	c #F5F675",
"E.	c #ECEC82",
"F.	c #FBFBB4",
"G.	c #999C92",
"H.	c #E1E2E3",
"I.	c #8F8F8F",
"J.	c #F6F7FF",
"K.	c #7B7468",
"L.	c #CED09D",
"M.	c #AA9C8A",
"N.	c #954900",
"O.	c #877863",
"P.	c #DADBDE",
"Q.	c #C8BBA9",
"R.	c #BB6800",
"S.	c #62503B",
"T.	c #6A6D75",
"U.	c #67686C",
"V.	c #868B93",
"W.	c #766447",
"X.	c #FF9900",
"Y.	c #735628",
"Z.	c #989FA9",
"`.	c #CFCECD",
" +	c #D37B00",
".+	c #B18E54",
"++	c #E2E8F3",
"@+	c #9E9C98",
"#+	c #676054",
"$+	c #51483A",
"%+	c #553E1B",
"&+	c #FE9500",
"*+	c #7C551C",
"=+	c #8F9399",
"-+	c #E0E4EA",
";+	c #D3D4D5",
">+	c #BA7105",
",+	c #B1751A",
"'+	c #EC8E01",
")+	c #F39300",
"!+	c #995C00",
"~+	c #A55F00",
"{+	c #544228",
"]+	c #E9EDF2",
"^+	c #CA7900",
"/+	c #DC8400",
"(+	c #FFA100",
"_+	c #AD6800",
":+	c #E58900",
"<+	c #6D3D00",
"[+	c #8A93A1",
"}+	c #DCE1EA",
"|+	c #F1F6FC",
"1+	c #AB7421",
"2+	c #EA9000",
"3+	c #D58100",
"4+	c #C27500",
"5+	c #99620E",
"6+	c #835818",
"7+	c #674D27",
"8+	c #5C5E60",
"9+	c #EEF0F1",
"0+	c #BABABA",
"a+	c #D4D8DE",
"b+	c #936929",
"c+	c #E48200",
"d+	c #FFA500",
"e+	c #F89800",
"f+	c #FF9D00",
"g+	c #E98600",
"h+	c #C0C1C4",
"i+	c #B0A797",
"j+	c #9C8056",
"k+	c #754703",
"l+	c #C26E00",
"m+	c #45403B",
"n+	c #FDFEFF",
"o+	c #F5F7F9",
"p+	c #F9FEFF",
"q+	c #EDF3FC",
"r+	c #9FA9B7",
"s+	c #8E5406",
"t+	c #4A3F33",
"u+	c #EFF1F4",
"v+	c #916F3C",
"w+	c #815B22",
"x+	c #BBBEC3",
"y+	c #B5BAC2",
"z+	c #6F4F1F",
"A+	c #854E00",
"B+	c #CD7500",
"C+	c #8A867F",
"D+	c #B8BEC8",
"E+	c #6F7070",
"F+	c #716F6B",
"G+	c #7B7976",
"                                                                                                    ",
"                                              . . . .                                               ",
"                                      + @ # $ % & & & % * = - .                                     ",
"                                . @ $ ; > , ' ) ! ! ! ~ { ] ^ & # -                                 ",
"                              @ % ^ { / ( _ : < [ [ [ } : | 1 ) ] ; * +                             ",
"                          + * 2 { 1 3 [ 4 5 6 7 8 9 0 a b c d e f ! , g = .                         ",
"                        @ & , h 3 i 5 j k 9 l m 0 1 % n o @ h p a < f q ^ * +                       ",
"                      = ; ' r s a t u v w x m < n y y y y y y ; 0 j z A h ] % -                     ",
"                    = 2 ~ B b 6 C v D E m m : y y y y y y y y y , w 8 5 < F , % -                   ",
"                  = 2 ) 3 4 t G w E m m m H o y y y y y y y y y y i m C H [ ( , % +                 ",
"                @ ; q 3 c 0 l D I m m m m J y y y y y y y y y y y J m w u 6 K F , $ .               ",
"              + & { | 4 0 l L m m m m m 6 M y y y y y y y y y y y + l m w u N s 1 J #               ",
"              * ] ( O j l L m m m m m m f y y y y y y y y y y & ' y a m I P C Q : ! ; @             ",
"            @ 2 / < 6 9 D I m m m m m m R y y y y y y y y y S e & o T U m m P 8 c B { % .           ",
"          . % ' 3 a C P I m m m m m m m , y y y y y y y y y y 4 ) V W X Y Z m ` j i  .> =           ",
"          = >  .i t v E m m m m m m m m ..y y y y y y y y y y ; J y +.@.#.W $.%.&.Q *.q & +         ",
"        . % ' A Q 9 D m m m m m m m m m 5 M y y y y y y y y y y y =.#.@.@.@.+.-.;.8 b F J =         ",
"        @ ^ 1 i 0 >.E m m m m m m m m m m q y y y y y y y y y y y ,.+.+.+.+.'.).!.&.~.*.q % .       ",
"        * R 3 5 u D m m m m m m m m m m m P > y y y y y y y y y ; {.Y ].^./.(._.m ` 0 i 1 ^ @       ",
"      + ; ! s 7 v E m m m m m m m m m m m m L B - y y y y M & _ D m m m m m m m m D C a B , *       ",
"      @ > ( z 8 P m m m m m m m m m m m m m m k % y y y y :.<.m m m m m m m m m m E l 6 e ) & .     ",
"      * R 3 5 9 L m m m m m m m m m m m m m a . y y y y y [.}.|.m m m m m m m m m I P 1.O 1 2 -     ",
"    . & ) e 6 v E m m m m m m m m m m m m H . y y y y y y 2.3.*.m m m m m m m m m m D C c f ] =     ",
"    - ; h K 0 P I m m m m m m m m m m m v $ y y y y y y y 4.5.6.m m m m m m m m m m x G Q 3 { *     ",
"    @ ^ F z k w m m m m m m m m m m m m ..y y y y y y y y 7.8.9.v m m m m m m m m m E v 6 e ~ % .   ",
"    = ] f d C D m m m m m m m m m m m 1.n y y y y y y y y 7.8.6.8 m m m m m m m m m I ` j [ / g .   ",
"    # , B 5 9 x m m m m m m m m m m m 0.y y y y y y y y y a.b.c.j m m m m m m m m m m P 1.i ..; +   ",
"    * R 3 ~.G x m m m m m m m m m m Q S y y y y y y y y y d.m ( t m m m m m m m m m m w 8 b  .2 -   ",
"    * { A H l E m m m m m m m m m 9 * y y y y y y y y y y e.m f k m m m m m m m m m m f.k z F ^ @   ",
"    $ ' *.H l E m m m m m m m m 8 % y y y y y y y y y y y ~ m F 9 m m m m m m m m m m f.k z F ^ @   ",
"    $ { *.H l E m m m m m m E A . y y y y y y y y y y y y % E 0.w m m m m m m m m m m f.k z F ^ @   ",
"    * { A H &.E m m m m m C 2 y y y y y y y y y y y y y y o c  .m m m m m m m m m m m f.k z F ^ -   ",
"    * R 3 Q G x m m m m 1.# y y y y y y y y y y y y y y y y , : m m m m m m m m m m m w 8 b 1 2 -   ",
"    # , B g.9 L m m m 9 * y y y y y y y y y y y y y y y y y . k m m m m m m m m m m m P 0 i h ; +   ",
"    = J f c C D m m m ] y y y y y y y y y y y y y y y y y y o 8 m m m m m m m m m m I >.j s ! & .   ",
"    @ ^  .b 8 w m m : y y y y y y y y y y y y y y y y y y y y r m m m m m m m m m m E l 6 : q %     ",
"    + ; / [ t ` m v = y y y y y y y y y y y y y M y y y y y y * D m m m m m m m m m L 9 Q 3 R *     ",
"      % q : 6 l m O y y y y y y y y y y y y y h.i.y y y y y y y b m m m m m m m m m f.j.k.r J =     ",
"      # , B a u m G $ M y y y y y y y y y l.m.n.o.p.y y y y y y , m m m m m m m m I ` 0 K h ; -     ",
"      @ ^  .b 1.P m q.r.s.t.u.l.l.:.u.v.w.x.y.z.m g.M y y y y y n 8 m m m m m m m x &.H : q % .     ",
"      . & ) e 6 l x m A.m.B.C.D.E.x.F.o.5.G.H.m m b J y y y y y y | m m m m m m m f.j.c I.] #       ",
"        * , | d C f.m m J.K.r.L.o.b.m m M.N.O.P.I.[ m R y y y y y % m m m m m m E v j [ h ; -       ",
"        - 2 h [ j v E m m Q.R.S.T.U.6.V.W.X.Y.Z.9 m m >.^ y y y y + l m m m m m f.C 5 3 { $         ",
"          $ R B a C w I m `. +.+++@+#+$+%+&+*+9.=+-+m m P F . y y 2 m m m m m E v j K 1 ^ @         ",
"          @ 2 h [ p l L m ;+ +>+,+'+'+)+!+'+!+ +~+{+]+m m m 9 } A 8 m m m m I w C a 3 { % .         ",
"            * , I.4 8 ` m M. +^+X. +/+(+_+)+!+/+:+<+[+}+++|+m m m m m m m m L G 6 s h 2 @           ",
"            - ; ) : Q 9 -+1+(+X.^+!+'+2+!+'+~+_+3+4+_+5+6+7+$+8+Z.9+m m m x v 0 0+f , *             ",
"              = > 1 [ 7 a+b+c+&+X.(+d+!+3+^+3+d+e+)+(+(+f+&+g+R.<+# h+m x ` 8 d 3 q & -             ",
"              . $ , ( i j a+i+j+b+5+k+_+(+X.)+>+k+4+X.X.X.X.f+(+d+l+m+n+P k 5 : ! 2 @               ",
"                + % R f O t o+p+q+++r+s+X.(+e+3+/+X.X.X.X.X.X.X.(+:+t+u+j.5 e h > #                 ",
"                  - & { f i 6 C P m m h+v+_+c+f+d+(+(+f+f+(+(+X. +w+x+C a : h J * .                 ",
"                    @ & R ( s 5 1.G w m _.y+K.z+A+~+l+B+B+R.!+Y.C+a+8 z A / > * .                   ",
"                      - % , ..*.z 6 8 9 P m m ]+D+I.E+F+G+I.y+}+u ~.[ I.~ ^ * .                     ",
"                        + * ^ q r e z H t k 9 v D m n+D o+l 1.5 i 3 0.R g =                         ",
"                          . = & ] E+r *.K z a Q H H H Q c b < B 1 ' ^ $ -                           ",
"                              + # g J { / F I.3 A A 3 B f 1 ) , 2 % @ .                             ",
"                                  + = % ; > ] R { { { , J 2 & * @ .                                 "};
