/* XPM */
static char * DayNewRDV_xpm[] = {
"16 16 10 1",
" 	c None",
".	c #585858",
"+	c #FFFF85",
"@	c #3D3D3D",
"#	c #FFFF00",
"$	c #E8E8E8",
"%	c #C0C000",
"&	c #C1C10A",
"*	c #FFFFC0",
"=	c #FFFFFF",
"                ",
"    .+   @@@@@  ",
"  + .# .+$$$$@  ",
"   #%#%#$$$$$@  ",
"   &*+*%$$$$$@  ",
" +##+=+##+$$$@  ",
"   %*+*%$$$$$@  ",
"   #%#%#$$$$$@  ",
"  +@$#$$+$$$$@  ",
"   @$+$$$$$$$@  ",
"   @$$$$$$$$$@  ",
"   @$$$$$$$$$@  ",
"   @@@@@@@@@@@  ",
"                ",
"                ",
"                "};
