/* XPM */
static char *QtableNew_Icon[]={
"16 16 20 1",
"g c None",
"r c #ffff19",
"o c #ffff09",
"f c #ffff0a",
"p c #ffff03",
"m c #ffff02",
"k c #ffff00",
"j c #ffff00",
"n c #ffff00",
"q c #ffff00",
"i c #ffff00",
"l c #ffff00",
"h c #ffff01",
"e c #ffff00",
"# c #000000",
". c #585858",
"a c #808080",
"b c #a0a0a0",
"d c #dcdcdc",
"c c #ffff00",
".####.###.######",
".aaaa.aaa.bbbbb#",
".aaaa.aaa.bbbbb#",
".aaaa.aaa.bbbbb#",
".####.###.######",
".bbbb.bbb.bbbbb#",
".bbbb.bbb.bbbbb#",
".bbbb.bbb.bbbbb#",
".####.###c##c#c#",
".dddd.ddd#ceccfg",
".dddd.ddd#hccijk",
".dddd.ddd#lccccc",
".dddd.ddd#cmcnog",
".####.###cggpcqg",
"gggggggggggggrcl",
"gggggggggggggggc"};
