/* XPM */
static char *rondJaune12[]={
"11 11 33 1",
". c None",
"o c #c41111",
"# c #c51515",
"v c #c30e0e",
"b c #c41212",
"h c #c20c0c",
"c c #c20d0d",
"r c #c20909",
"g c #c20a0a",
"n c #c10808",
"y c #c10707",
"E c #c10808",
"s c #c10505",
"B c #c10606",
"a c #c20a0a",
"u c #c00202",
"D c #c00404",
"i c #c82501",
"p c #c82101",
"d c #c72001",
"m c #ca2b01",
"f c #c82301",
"A c #cc3401",
"x c #cb3001",
"C c #cb3001",
"e c #ca2a00",
"t c #cf4000",
"j c #df7f00",
"q c #e38d00",
"l c #e38f00",
"w c #e69b00",
"z c #e69c00",
"k c #ffff00",
"...#aab....",
"..cdeefg...",
".hijkklmn..",
"opjkkkkqmr.",
"sekkkkkktu.",
"sekkkkkktu.",
"vflkkkkwxy.",
".rmqkkzAB..",
"..nmttCB...",
"...gDDE....",
"..........."};
