/* XPM */
static char *VidalDataSemp_Icon_xpm[]={
"22 22 3 1",
". c None",
"# c #ff0000",
"a c #ffffff",
"......................",
"......................",
"..###################.",
"..#a#a#a#aaa##aaa#a##.",
"..#a#a#a#a##a#a#a#a##.",
"..#a#a#a#a##a#aaa#a##.",
"..##a##a#a##a#a#a#a##.",
"..##a##a#aaa##a#a#aa#.",
"..###################.",
"..#################aa.",
"..###############aaaa.",
"..##############aaa##.",
"..############aaa####.",
"..#########aaaa#####a.",
"..#####aaaaa#######aa.",
"..#aaaaa#########aaaa.",
"..###########aaaaaa##.",
"..#aaaaaaaaaaa#######.",
"..###################.",
"......................",
"......................",
"......................"};
